<svg width="1329" height="190" viewBox="0 0 1329 190" fill="none" xmlns="http://www.w3.org/2000/svg">
<path d="M85.58 189.32C125 189.32 141.47 171.23 148.49 152.06V185H188.18V86.45H85.04V116.42H143.09C140.12 136.67 129.32 152.6 96.92 152.6C64.79 152.6 50.48 133.43 50.48 95.36C50.48 54.86 67.76 37.58 99.89 37.58C125.54 37.58 138.77 49.19 140.93 64.85H188.45C186.02 29.75 161.72 0.859989 99.62 0.859989C29.69 0.859989 0.800001 43.25 0.800001 95.36C0.800001 146.39 26.99 189.32 85.58 189.32ZM294.427 189.32C365.707 189.32 391.087 143.15 391.087 95.36C391.087 48.38 365.707 0.859989 294.427 0.859989C223.687 0.859989 198.037 48.11 198.037 95.36C198.037 143.42 223.687 189.32 294.427 189.32ZM247.717 95.36C247.717 59.72 257.437 39.74 294.427 39.74C331.957 39.74 341.407 59.72 341.407 95.36C341.407 130.46 331.957 150.71 294.427 150.71C257.437 150.71 247.717 130.46 247.717 95.36ZM557.462 142.61C557.462 116.15 541.802 106.7 523.172 102.65C545.582 98.06 562.052 80.78 562.052 55.13C562.052 26.24 542.342 5.44999 501.842 5.44999H402.482V185H450.542V119.93H483.212C498.602 119.93 509.672 128.03 509.672 145.31V152.6C509.672 167.45 510.752 177.71 512.912 185H560.972C559.082 174.74 557.462 167.18 557.462 152.6V142.61ZM489.152 85.91H450.542V41.9H489.422C505.352 41.9 512.372 48.92 512.372 62.96C512.372 78.35 505.622 85.91 489.152 85.91ZM685.634 42.98V5.44999H574.934V42.98H606.524V147.47H574.934V185H685.634V147.47H654.044V42.98H685.634ZM751.149 147.47V5.44999H703.089V185H831.879V147.47H751.149ZM890.115 147.47V5.44999H842.055V185H970.845V147.47H890.115ZM1118.53 185H1166.32L1105.03 5.44999H1031.86L970.573 185H1018.09L1029.7 151.25H1106.92L1118.53 185ZM1041.85 115.34L1068.31 38.39L1094.77 115.34H1041.85ZM1227.94 147.47L1328.11 42.98V5.44999H1168.81V42.98H1266.01L1166.11 147.47V185H1328.92V147.47H1227.94Z" fill="#A71320"/>
</svg>
