<svg width="784" height="72" viewBox="0 0 784 72" fill="none" xmlns="http://www.w3.org/2000/svg">
<path d="M37.896 4.16H2.184V68H19.272V47.168H37.896C52.584 47.168 58.44 37.664 58.44 25.28C58.44 13.664 52.584 4.16 37.896 4.16ZM32.232 34.112H19.272V17.12H32.424C38.472 17.12 40.776 20.48 40.776 25.376C40.776 30.368 38.376 34.112 32.232 34.112ZM82.8345 54.656V4.16H65.7465V68H111.539V54.656H82.8345ZM167.89 68H184.882L163.09 4.16H137.074L115.282 68H132.178L136.306 56H163.762L167.89 68ZM140.626 43.232L150.034 15.872L159.442 43.232H140.626ZM185.891 47.264C186.563 58.688 193.859 69.632 214.883 69.632C235.619 69.632 243.491 61.184 243.491 48.608C243.491 37.088 237.155 30.464 223.139 29.12L210.947 27.872C206.051 27.296 204.131 24.896 204.131 21.632C204.131 17.408 207.971 14.816 214.499 14.816C221.699 14.816 225.539 18.176 226.211 23.264H242.915C242.051 11.936 234.179 2.528 214.499 2.528C196.067 2.528 187.043 10.784 187.043 22.784C187.043 33.632 193.667 40.16 205.187 41.504L219.107 43.04C223.907 43.712 226.403 45.824 226.403 50.048C226.403 54.464 223.331 57.344 215.171 57.344C206.243 57.344 202.787 52.544 202.307 47.264H185.891ZM303.866 4.16H245.882V17.504H266.426V68H283.418V17.504H303.866V4.16ZM348.857 17.504V4.16H309.497V17.504H320.729V54.656H309.497V68H348.857V54.656H337.625V17.504H348.857ZM387.603 69.536C411.027 69.536 419.763 61.28 421.299 41.696H403.731C403.059 51.008 398.931 55.808 387.507 55.808C375.987 55.808 371.379 49.088 371.379 36.128C371.379 22.976 376.371 16.352 387.987 16.352C399.123 16.352 402.771 21.344 403.539 29.984H420.915C419.571 11.648 410.547 2.528 387.699 2.528C363.027 2.528 353.715 19.04 353.715 36.128C353.715 53.696 362.931 69.536 387.603 69.536ZM497.728 35.072C505.408 33.44 511.072 29.312 511.072 19.904C511.072 11.264 505.408 4.16 491.776 4.16H454.528V68H491.104C504.736 68 512.032 61.568 512.032 50.624C512.032 40.16 505.792 36.512 497.728 35.072ZM486.4 16.832C491.392 16.832 493.408 19.232 493.408 23.36C493.408 27.104 491.776 29.984 486.304 29.984H471.424V16.832H486.4ZM486.784 55.328H471.424V41.024H486.304C492.352 41.024 494.368 44.096 494.368 48.224C494.368 52.352 492.544 55.328 486.784 55.328ZM537.518 54.656V41.696H568.814V29.312H537.518V17.504H571.694V4.16H520.622V68H571.982V54.656H537.518ZM628.39 68H645.382L623.59 4.16H597.574L575.782 68H592.678L596.806 56H624.262L628.39 68ZM601.126 43.232L610.534 15.872L619.942 43.232H601.126ZM679.822 69.536C703.246 69.536 711.982 61.28 713.518 41.696H695.95C695.278 51.008 691.15 55.808 679.726 55.808C668.206 55.808 663.598 49.088 663.598 36.128C663.598 22.976 668.59 16.352 680.206 16.352C691.342 16.352 694.99 21.344 695.758 29.984H713.134C711.79 11.648 702.766 2.528 679.918 2.528C655.246 2.528 645.934 19.04 645.934 36.128C645.934 53.696 655.15 69.536 679.822 69.536ZM764.549 4.16V29.024H737.861V4.16H720.965V68H737.861V42.176H764.549V68H781.445V4.16H764.549Z" fill="#FBF7EC"/>
<path d="M2.184 4.16V2.16H0.184V4.16H2.184ZM2.184 68H0.184V70H2.184V68ZM19.272 68V70H21.272V68H19.272ZM19.272 47.168V45.168H17.272V47.168H19.272ZM19.272 34.112H17.272V36.112H19.272V34.112ZM19.272 17.12V15.12H17.272V17.12H19.272ZM37.896 2.16H2.184V6.16H37.896V2.16ZM0.184 4.16V68H4.184V4.16H0.184ZM2.184 70H19.272V66H2.184V70ZM21.272 68V47.168H17.272V68H21.272ZM19.272 49.168H37.896V45.168H19.272V49.168ZM37.896 49.168C45.6995 49.168 51.4498 46.6226 55.2067 42.1553C58.9135 37.7475 60.44 31.7519 60.44 25.28H56.44C56.44 31.1921 55.0385 36.1405 52.1453 39.5807C49.3022 42.9614 44.7805 45.168 37.896 45.168V49.168ZM60.44 25.28C60.44 19.1658 58.9009 13.3618 55.1908 9.05812C51.437 4.70365 45.6982 2.16 37.896 2.16V6.16C44.7818 6.16 49.315 8.36835 52.1612 11.6699C55.0511 15.0222 56.44 19.7782 56.44 25.28H60.44ZM32.232 32.112H19.272V36.112H32.232V32.112ZM21.272 34.112V17.12H17.272V34.112H21.272ZM19.272 19.12H32.424V15.12H19.272V19.12ZM32.424 19.12C35.0823 19.12 36.5551 19.8493 37.3942 20.764C38.2629 21.711 38.776 23.2068 38.776 25.376H42.776C42.776 22.6492 42.1371 20.017 40.3418 18.06C38.5169 16.0707 35.8137 15.12 32.424 15.12V19.12ZM38.776 25.376C38.776 27.5847 38.2424 29.2276 37.3043 30.2974C36.4075 31.32 34.883 32.112 32.232 32.112V36.112C35.725 36.112 38.4725 35.032 40.3117 32.9346C42.1097 30.8844 42.776 28.1592 42.776 25.376H38.776ZM82.8345 54.656H80.8345V56.656H82.8345V54.656ZM82.8345 4.16H84.8345V2.16H82.8345V4.16ZM65.7465 4.16V2.16H63.7465V4.16H65.7465ZM65.7465 68H63.7465V70H65.7465V68ZM111.539 68V70H113.539V68H111.539ZM111.539 54.656H113.539V52.656H111.539V54.656ZM84.8345 54.656V4.16H80.8345V54.656H84.8345ZM82.8345 2.16H65.7465V6.16H82.8345V2.16ZM63.7465 4.16V68H67.7465V4.16H63.7465ZM65.7465 70H111.539V66H65.7465V70ZM113.539 68V54.656H109.539V68H113.539ZM111.539 52.656H82.8345V56.656H111.539V52.656ZM167.89 68L165.999 68.6506L166.463 70H167.89V68ZM184.882 68V70H187.678L186.775 67.3539L184.882 68ZM163.09 4.16L164.983 3.5139L164.52 2.16H163.09V4.16ZM137.074 4.16V2.16H135.643L135.181 3.5139L137.074 4.16ZM115.282 68L113.389 67.3539L112.486 70H115.282V68ZM132.178 68V70H133.605L134.069 68.6506L132.178 68ZM136.306 56V54H134.879L134.415 55.3494L136.306 56ZM163.762 56L165.653 55.3494L165.189 54H163.762V56ZM140.626 43.232L138.734 42.5817L137.823 45.232H140.626V43.232ZM150.034 15.872L151.925 15.2217L150.034 9.72141L148.142 15.2217L150.034 15.872ZM159.442 43.232V45.232H162.244L161.333 42.5817L159.442 43.232ZM167.89 70H184.882V66H167.89V70ZM186.775 67.3539L164.983 3.5139L161.197 4.8061L182.989 68.6461L186.775 67.3539ZM163.09 2.16H137.074V6.16H163.09V2.16ZM135.181 3.5139L113.389 67.3539L117.175 68.6461L138.967 4.8061L135.181 3.5139ZM115.282 70H132.178V66H115.282V70ZM134.069 68.6506L138.197 56.6506L134.415 55.3494L130.287 67.3494L134.069 68.6506ZM136.306 58H163.762V54H136.306V58ZM161.871 56.6506L165.999 68.6506L169.781 67.3494L165.653 55.3494L161.871 56.6506ZM142.517 43.8823L151.925 16.5223L148.142 15.2217L138.734 42.5817L142.517 43.8823ZM148.142 16.5223L157.55 43.8823L161.333 42.5817L151.925 15.2217L148.142 16.5223ZM159.442 41.232H140.626V45.232H159.442V41.232ZM185.891 47.264V45.264H183.77L183.895 47.3814L185.891 47.264ZM223.139 29.12L222.936 31.1096L222.948 31.1109L223.139 29.12ZM210.947 27.872L210.714 29.8583L210.729 29.8601L210.744 29.8616L210.947 27.872ZM226.211 23.264L224.228 23.5259L224.458 25.264H226.211V23.264ZM242.915 23.264V25.264H245.074L244.909 23.1119L242.915 23.264ZM205.187 41.504L204.955 43.4906L204.968 43.4919L205.187 41.504ZM219.107 43.04L219.385 41.0593L219.356 41.0553L219.327 41.0521L219.107 43.04ZM202.307 47.264L204.299 47.0829L204.134 45.264H202.307V47.264ZM183.895 47.3814C184.253 53.4743 186.393 59.6068 191.403 64.2053C196.411 68.803 204.031 71.632 214.883 71.632V67.632C204.711 67.632 198.171 64.989 194.108 61.2587C190.045 57.5292 188.201 52.4777 187.888 47.1466L183.895 47.3814ZM214.883 71.632C225.472 71.632 233.156 69.483 238.22 65.3917C243.364 61.236 245.491 55.3367 245.491 48.608H241.491C241.491 54.4553 239.682 59.068 235.706 62.2803C231.651 65.557 225.03 67.632 214.883 67.632V71.632ZM245.491 48.608C245.491 42.4733 243.793 37.3593 239.97 33.6184C236.185 29.9155 230.588 27.8251 223.33 27.1291L222.948 31.1109C229.707 31.7589 234.285 33.6525 237.173 36.4776C240.021 39.2647 241.491 43.2227 241.491 48.608H245.491ZM223.343 27.1304L211.151 25.8824L210.744 29.8616L222.936 31.1096L223.343 27.1304ZM211.181 25.8857C208.998 25.6289 207.777 24.9983 207.11 24.338C206.478 23.7128 206.131 22.8539 206.131 21.632H202.131C202.131 23.6741 202.745 25.6472 204.297 27.182C205.813 28.6816 208 29.5391 210.714 29.8583L211.181 25.8857ZM206.131 21.632C206.131 20.2251 206.726 19.1324 207.971 18.3076C209.304 17.4254 211.46 16.816 214.499 16.816V12.816C211.01 12.816 207.983 13.5026 205.763 14.9724C203.457 16.4996 202.131 18.8149 202.131 21.632H206.131ZM214.499 16.816C217.803 16.816 220.095 17.5871 221.594 18.7249C223.061 19.8385 223.953 21.4422 224.228 23.5259L228.194 23.0021C227.797 19.9978 226.434 17.3775 224.013 15.5391C221.623 13.7249 218.395 12.816 214.499 12.816V16.816ZM226.211 25.264H242.915V21.264H226.211V25.264ZM244.909 23.1119C244.445 17.0171 242.071 11.2879 237.041 7.10955C232.037 2.95239 224.641 0.527996 214.499 0.527996V4.528C224.038 4.528 230.418 6.8076 234.485 10.1864C238.527 13.5441 240.522 18.1829 240.921 23.4161L244.909 23.1119ZM214.499 0.527996C205.017 0.527996 197.659 2.64768 192.628 6.5802C187.532 10.5625 185.043 16.2352 185.043 22.784H189.043C189.043 17.3328 191.066 12.8775 195.091 9.73179C199.179 6.53631 205.549 4.528 214.499 4.528V0.527996ZM185.043 22.784C185.043 28.6343 186.842 33.5144 190.368 37.1086C193.87 40.6791 198.882 42.782 204.955 43.4905L205.419 39.5175C199.973 38.882 195.912 37.0489 193.223 34.3074C190.557 31.5896 189.043 27.7817 189.043 22.784H185.043ZM204.968 43.4919L218.888 45.0279L219.327 41.0521L205.407 39.5161L204.968 43.4919ZM218.83 45.0207C221.035 45.3294 222.394 45.932 223.192 46.6755C223.923 47.3564 224.403 48.3602 224.403 50.048H228.403C228.403 47.5118 227.635 45.3476 225.918 43.7485C224.269 42.212 221.98 41.4226 219.385 41.0593L218.83 45.0207ZM224.403 50.048C224.403 51.733 223.855 52.8922 222.688 53.7223C221.393 54.6433 219.078 55.344 215.171 55.344V59.344C219.425 59.344 222.725 58.6047 225.007 56.9817C227.416 55.2678 228.403 52.779 228.403 50.048H224.403ZM215.171 55.344C211.067 55.344 208.499 54.247 206.919 52.8061C205.332 51.3596 204.505 49.352 204.299 47.0829L200.315 47.4451C200.589 50.456 201.73 53.4884 204.224 55.7619C206.723 58.041 210.348 59.344 215.171 59.344V55.344ZM202.307 45.264H185.891V49.264H202.307V45.264ZM303.866 4.16H305.866V2.16H303.866V4.16ZM245.882 4.16V2.16H243.882V4.16H245.882ZM245.882 17.504H243.882V19.504H245.882V17.504ZM266.426 17.504H268.426V15.504H266.426V17.504ZM266.426 68H264.426V70H266.426V68ZM283.418 68V70H285.418V68H283.418ZM283.418 17.504V15.504H281.418V17.504H283.418ZM303.866 17.504V19.504H305.866V17.504H303.866ZM303.866 2.16H245.882V6.16H303.866V2.16ZM243.882 4.16V17.504H247.882V4.16H243.882ZM245.882 19.504H266.426V15.504H245.882V19.504ZM264.426 17.504V68H268.426V17.504H264.426ZM266.426 70H283.418V66H266.426V70ZM285.418 68V17.504H281.418V68H285.418ZM283.418 19.504H303.866V15.504H283.418V19.504ZM305.866 17.504V4.16H301.866V17.504H305.866ZM348.857 17.504V19.504H350.857V17.504H348.857ZM348.857 4.16H350.857V2.16H348.857V4.16ZM309.497 4.16V2.16H307.497V4.16H309.497ZM309.497 17.504H307.497V19.504H309.497V17.504ZM320.729 17.504H322.729V15.504H320.729V17.504ZM320.729 54.656V56.656H322.729V54.656H320.729ZM309.497 54.656V52.656H307.497V54.656H309.497ZM309.497 68H307.497V70H309.497V68ZM348.857 68V70H350.857V68H348.857ZM348.857 54.656H350.857V52.656H348.857V54.656ZM337.625 54.656H335.625V56.656H337.625V54.656ZM337.625 17.504V15.504H335.625V17.504H337.625ZM350.857 17.504V4.16H346.857V17.504H350.857ZM348.857 2.16H309.497V6.16H348.857V2.16ZM307.497 4.16V17.504H311.497V4.16H307.497ZM309.497 19.504H320.729V15.504H309.497V19.504ZM318.729 17.504V54.656H322.729V17.504H318.729ZM320.729 52.656H309.497V56.656H320.729V52.656ZM307.497 54.656V68H311.497V54.656H307.497ZM309.497 70H348.857V66H309.497V70ZM350.857 68V54.656H346.857V68H350.857ZM348.857 52.656H337.625V56.656H348.857V52.656ZM339.625 54.656V17.504H335.625V54.656H339.625ZM337.625 19.504H348.857V15.504H337.625V19.504ZM421.299 41.696L423.293 41.8524L423.462 39.696H421.299V41.696ZM403.731 41.696V39.696H401.87L401.736 41.552L403.731 41.696ZM403.539 29.984L401.547 30.1611L401.709 31.984H403.539V29.984ZM420.915 29.984V31.984H423.067L422.91 29.8378L420.915 29.984ZM387.603 71.536C399.478 71.536 408.107 69.4579 413.955 64.4834C419.847 59.4708 422.507 51.8737 423.293 41.8524L419.305 41.5396C418.555 51.1023 416.079 57.4252 411.363 61.4366C406.603 65.4861 399.152 67.536 387.603 67.536V71.536ZM421.299 39.696H403.731V43.696H421.299V39.696ZM401.736 41.552C401.416 45.9834 400.299 48.9119 398.29 50.7789C396.275 52.6506 392.985 53.808 387.507 53.808V57.808C393.453 57.808 397.939 56.5654 401.012 53.7091C404.091 50.8481 405.374 46.7206 405.726 41.84L401.736 41.552ZM387.507 53.808C382.148 53.808 378.794 52.2644 376.696 49.5926C374.515 46.8157 373.379 42.4408 373.379 36.128H369.379C369.379 42.7752 370.547 48.2403 373.55 52.0634C376.636 55.9916 381.346 57.808 387.507 57.808V53.808ZM373.379 36.128C373.379 29.7419 374.602 25.352 376.875 22.5745C379.077 19.8824 382.565 18.352 387.987 18.352V14.352C381.793 14.352 376.977 16.1335 373.779 20.0415C370.652 23.864 369.379 29.3621 369.379 36.128H373.379ZM387.987 18.352C393.29 18.352 396.382 19.5431 398.258 21.3636C400.153 23.2017 401.18 26.0348 401.547 30.1611L405.531 29.8069C405.13 25.2932 403.949 21.3103 401.044 18.4924C398.12 15.6569 393.82 14.352 387.987 14.352V18.352ZM403.539 31.984H420.915V27.984H403.539V31.984ZM422.91 29.8378C422.217 20.394 419.518 12.9229 413.68 7.86805C407.876 2.84254 399.338 0.527996 387.699 0.527996V4.528C398.908 4.528 406.306 6.77345 411.062 10.8919C415.784 14.9811 418.269 21.238 418.92 30.1302L422.91 29.8378ZM387.699 0.527996C374.883 0.527996 365.795 4.8377 359.942 11.6125C354.132 18.3362 351.715 27.2489 351.715 36.128H355.715C355.715 27.9191 357.954 20.0317 362.968 14.2275C367.939 8.47429 375.843 4.528 387.699 4.528V0.527996ZM351.715 36.128C351.715 45.2333 354.102 54.1101 359.902 60.7372C365.744 67.4118 374.813 71.536 387.603 71.536V67.536C375.721 67.536 367.846 63.7402 362.912 58.1028C357.936 52.4179 355.715 44.5907 355.715 36.128H351.715ZM497.728 35.072L497.312 33.1157L497.376 37.0409L497.728 35.072ZM454.528 4.16V2.16H452.528V4.16H454.528ZM454.528 68H452.528V70H454.528V68ZM471.424 29.984H469.424V31.984H471.424V29.984ZM471.424 16.832V14.832H469.424V16.832H471.424ZM471.424 55.328H469.424V57.328H471.424V55.328ZM471.424 41.024V39.024H469.424V41.024H471.424ZM498.143 37.0283C502.192 36.1681 505.95 34.6035 508.705 31.8075C511.508 28.9619 513.072 25.0434 513.072 19.904H509.072C509.072 24.1726 507.804 27.0221 505.855 29.0005C503.857 31.0285 500.944 32.3439 497.312 33.1157L498.143 37.0283ZM513.072 19.904C513.072 15.1388 511.498 10.6233 507.886 7.31675C504.291 4.02553 498.925 2.16 491.776 2.16V6.16C498.258 6.16 502.541 7.84647 505.185 10.2672C507.813 12.6727 509.072 16.0292 509.072 19.904H513.072ZM491.776 2.16H454.528V6.16H491.776V2.16ZM452.528 4.16V68H456.528V4.16H452.528ZM454.528 70H491.104V66H454.528V70ZM491.104 70C498.204 70 503.959 68.3276 507.969 64.9447C512.031 61.5189 514.032 56.5676 514.032 50.624H510.032C510.032 55.6244 508.385 59.3611 505.39 61.8873C502.344 64.4564 497.636 66 491.104 66V70ZM514.032 50.624C514.032 44.9601 512.323 40.857 509.269 38.0028C506.289 35.2173 502.265 33.8506 498.079 33.1031L497.376 37.0409C501.254 37.7333 504.383 38.9107 506.538 40.9252C508.62 42.871 510.032 45.8239 510.032 50.624H514.032ZM486.4 18.832C488.608 18.832 489.757 19.3637 490.369 19.9698C490.977 20.571 491.408 21.5931 491.408 23.36H495.408C495.408 20.9989 494.831 18.757 493.182 17.1262C491.539 15.5003 489.184 14.832 486.4 14.832V18.832ZM491.408 23.36C491.408 24.9854 491.048 26.0559 490.435 26.7225C489.852 27.3575 488.706 27.984 486.304 27.984V31.984C489.374 31.984 491.78 31.1705 493.38 29.4295C494.951 27.7201 495.408 25.4786 495.408 23.36H491.408ZM486.304 27.984H471.424V31.984H486.304V27.984ZM473.424 29.984V16.832H469.424V29.984H473.424ZM471.424 18.832H486.4V14.832H471.424V18.832ZM486.784 53.328H471.424V57.328H486.784V53.328ZM473.424 55.328V41.024H469.424V55.328H473.424ZM471.424 43.024H486.304V39.024H471.424V43.024ZM486.304 43.024C489.012 43.024 490.423 43.7092 491.176 44.4768C491.936 45.2512 492.368 46.4568 492.368 48.224H496.368C496.368 45.8632 495.791 43.4688 494.031 41.6752C492.264 39.8748 489.644 39.024 486.304 39.024V43.024ZM492.368 48.224C492.368 50.036 491.963 51.2212 491.274 51.9594C490.609 52.6719 489.34 53.328 486.784 53.328V57.328C489.988 57.328 492.511 56.4961 494.198 54.6886C495.861 52.9068 496.368 50.54 496.368 48.224H492.368ZM537.518 54.656H535.518V56.656H537.518V54.656ZM537.518 41.696V39.696H535.518V41.696H537.518ZM568.814 41.696V43.696H570.814V41.696H568.814ZM568.814 29.312H570.814V27.312H568.814V29.312ZM537.518 29.312H535.518V31.312H537.518V29.312ZM537.518 17.504V15.504H535.518V17.504H537.518ZM571.694 17.504V19.504H573.694V17.504H571.694ZM571.694 4.16H573.694V2.16H571.694V4.16ZM520.622 4.16V2.16H518.622V4.16H520.622ZM520.622 68H518.622V70H520.622V68ZM571.982 68V70H573.982V68H571.982ZM571.982 54.656H573.982V52.656H571.982V54.656ZM539.518 54.656V41.696H535.518V54.656H539.518ZM537.518 43.696H568.814V39.696H537.518V43.696ZM570.814 41.696V29.312H566.814V41.696H570.814ZM568.814 27.312H537.518V31.312H568.814V27.312ZM539.518 29.312V17.504H535.518V29.312H539.518ZM537.518 19.504H571.694V15.504H537.518V19.504ZM573.694 17.504V4.16H569.694V17.504H573.694ZM571.694 2.16H520.622V6.16H571.694V2.16ZM518.622 4.16V68H522.622V4.16H518.622ZM520.622 70H571.982V66H520.622V70ZM573.982 68V54.656H569.982V68H573.982ZM571.982 52.656H537.518V56.656H571.982V52.656ZM628.39 68L626.499 68.6506L626.963 70H628.39V68ZM645.382 68V70H648.178L647.275 67.3539L645.382 68ZM623.59 4.16L625.483 3.5139L625.02 2.16H623.59V4.16ZM597.574 4.16V2.16H596.143L595.681 3.5139L597.574 4.16ZM575.782 68L573.889 67.3539L572.986 70H575.782V68ZM592.678 68V70H594.105L594.569 68.6506L592.678 68ZM596.806 56V54H595.379L594.915 55.3494L596.806 56ZM624.262 56L626.153 55.3494L625.689 54H624.262V56ZM601.126 43.232L599.234 42.5817L598.323 45.232H601.126V43.232ZM610.534 15.872L612.425 15.2217L610.534 9.72141L608.642 15.2217L610.534 15.872ZM619.942 43.232V45.232H622.744L621.833 42.5817L619.942 43.232ZM628.39 70H645.382V66H628.39V70ZM647.275 67.3539L625.483 3.5139L621.697 4.8061L643.489 68.6461L647.275 67.3539ZM623.59 2.16H597.574V6.16H623.59V2.16ZM595.681 3.5139L573.889 67.3539L577.675 68.6461L599.467 4.8061L595.681 3.5139ZM575.782 70H592.678V66H575.782V70ZM594.569 68.6506L598.697 56.6506L594.915 55.3494L590.787 67.3494L594.569 68.6506ZM596.806 58H624.262V54H596.806V58ZM622.371 56.6506L626.499 68.6506L630.281 67.3494L626.153 55.3494L622.371 56.6506ZM603.017 43.8823L612.425 16.5223L608.642 15.2217L599.234 42.5817L603.017 43.8823ZM608.642 16.5223L618.05 43.8823L621.833 42.5817L612.425 15.2217L608.642 16.5223ZM619.942 41.232H601.126V45.232H619.942V41.232ZM713.518 41.696L715.512 41.8524L715.681 39.696H713.518V41.696ZM695.95 41.696V39.696H694.089L693.955 41.552L695.95 41.696ZM695.758 29.984L693.766 30.1611L693.928 31.984H695.758V29.984ZM713.134 29.984V31.984H715.286L715.128 29.8378L713.134 29.984ZM679.822 71.536C691.697 71.536 700.326 69.4579 706.174 64.4834C712.066 59.4708 714.726 51.8737 715.512 41.8524L711.524 41.5396C710.774 51.1023 708.297 57.4252 703.582 61.4366C698.822 65.4861 691.371 67.536 679.822 67.536V71.536ZM713.518 39.696H695.95V43.696H713.518V39.696ZM693.955 41.552C693.635 45.9834 692.518 48.9119 690.508 50.7789C688.494 52.6506 685.204 53.808 679.726 53.808V57.808C685.671 57.808 690.157 56.5654 693.231 53.7091C696.31 50.8481 697.592 46.7206 697.945 41.84L693.955 41.552ZM679.726 53.808C674.367 53.808 671.013 52.2644 668.915 49.5926C666.733 46.8157 665.598 42.4408 665.598 36.128H661.598C661.598 42.7752 662.766 48.2403 665.769 52.0634C668.854 55.9916 673.564 57.808 679.726 57.808V53.808ZM665.598 36.128C665.598 29.7419 666.821 25.352 669.094 22.5745C671.296 19.8824 674.783 18.352 680.206 18.352V14.352C674.012 14.352 669.195 16.1335 665.998 20.0415C662.87 23.864 661.598 29.3621 661.598 36.128H665.598ZM680.206 18.352C685.509 18.352 688.6 19.5431 690.477 21.3636C692.372 23.2017 693.399 26.0348 693.766 30.1611L697.75 29.8069C697.349 25.2932 696.167 21.3103 693.262 18.4924C690.339 15.6569 686.038 14.352 680.206 14.352V18.352ZM695.758 31.984H713.134V27.984H695.758V31.984ZM715.128 29.8378C714.436 20.394 711.737 12.9229 705.899 7.86805C700.095 2.84254 691.557 0.527996 679.918 0.527996V4.528C691.127 4.528 698.524 6.77345 703.281 10.8919C708.003 14.9811 710.487 21.238 711.139 30.1302L715.128 29.8378ZM679.918 0.527996C667.102 0.527996 658.014 4.8377 652.16 11.6125C646.351 18.3362 643.934 27.2489 643.934 36.128H647.934C647.934 27.9191 650.172 20.0317 655.187 14.2275C660.158 8.47429 668.062 4.528 679.918 4.528V0.527996ZM643.934 36.128C643.934 45.2333 646.32 54.1101 652.121 60.7372C657.963 67.4118 667.032 71.536 679.822 71.536V67.536C667.939 67.536 660.065 63.7402 655.131 58.1028C650.155 52.4179 647.934 44.5907 647.934 36.128H643.934ZM764.549 4.16V2.16H762.549V4.16H764.549ZM764.549 29.024V31.024H766.549V29.024H764.549ZM737.861 29.024H735.861V31.024H737.861V29.024ZM737.861 4.16H739.861V2.16H737.861V4.16ZM720.965 4.16V2.16H718.965V4.16H720.965ZM720.965 68H718.965V70H720.965V68ZM737.861 68V70H739.861V68H737.861ZM737.861 42.176V40.176H735.861V42.176H737.861ZM764.549 42.176H766.549V40.176H764.549V42.176ZM764.549 68H762.549V70H764.549V68ZM781.445 68V70H783.445V68H781.445ZM781.445 4.16H783.445V2.16H781.445V4.16ZM762.549 4.16V29.024H766.549V4.16H762.549ZM764.549 27.024H737.861V31.024H764.549V27.024ZM739.861 29.024V4.16H735.861V29.024H739.861ZM737.861 2.16H720.965V6.16H737.861V2.16ZM718.965 4.16V68H722.965V4.16H718.965ZM720.965 70H737.861V66H720.965V70ZM739.861 68V42.176H735.861V68H739.861ZM737.861 44.176H764.549V40.176H737.861V44.176ZM762.549 42.176V68H766.549V42.176H762.549ZM764.549 70H781.445V66H764.549V70ZM783.445 68V4.16H779.445V68H783.445ZM781.445 2.16H764.549V6.16H781.445V2.16Z" fill="#FBF7EC"/>
</svg>
