<svg width="648" height="72" viewBox="0 0 648 72" fill="none" xmlns="http://www.w3.org/2000/svg">
<path d="M34.44 4.16H2.184V68H34.44C55.176 68 64.68 52.544 64.68 35.936C64.68 19.328 55.176 4.16 34.44 4.16ZM30.6 54.656H19.08V17.504H30.6C42.12 17.504 47.016 23.456 47.016 35.936C47.016 48.224 42.216 54.656 30.6 54.656ZM89.0175 54.656V41.696H120.314V29.312H89.0175V17.504H123.194V4.16H72.1215V68H123.482V54.656H89.0175ZM216.204 4.16H187.788L174.732 50.528L161.772 4.16H132.684V68H149.58V14.72L165.036 68H183.948L199.308 15.104V68H216.204V4.16ZM258.331 69.536C283.675 69.536 292.699 53.12 292.699 36.128C292.699 19.424 283.675 2.528 258.331 2.528C233.179 2.528 224.059 19.328 224.059 36.128C224.059 53.216 233.179 69.536 258.331 69.536ZM241.723 36.128C241.723 23.456 245.179 16.352 258.331 16.352C271.675 16.352 275.035 23.456 275.035 36.128C275.035 48.608 271.675 55.808 258.331 55.808C245.179 55.808 241.723 48.608 241.723 36.128ZM349.166 4.16V54.944C348.302 52.064 347.342 49.184 346.286 46.688L328.334 4.16H300.59V68H316.718V17.312C317.582 20.384 318.542 23.456 319.79 26.336L337.55 68H365.294V4.16H349.166ZM432.596 4.16H400.34V68H432.596C453.332 68 462.836 52.544 462.836 35.936C462.836 19.328 453.332 4.16 432.596 4.16ZM428.756 54.656H417.236V17.504H428.756C440.276 17.504 445.172 23.456 445.172 35.936C445.172 48.224 440.372 54.656 428.756 54.656ZM515.327 68H532.319L510.527 4.16H484.511L462.719 68H479.615L483.743 56H511.199L515.327 68ZM488.063 43.232L497.471 15.872L506.879 43.232H488.063ZM568.784 4.16L559.376 25.088C557.84 28.736 556.4 32.288 555.056 35.936C553.808 32.288 552.368 28.736 550.832 25.088L541.712 4.16H522.704L546.704 49.568V68H563.696V49.568L587.504 4.16H568.784ZM588.173 47.264C588.845 58.688 596.141 69.632 617.165 69.632C637.901 69.632 645.773 61.184 645.773 48.608C645.773 37.088 639.437 30.464 625.421 29.12L613.229 27.872C608.333 27.296 606.413 24.896 606.413 21.632C606.413 17.408 610.253 14.816 616.781 14.816C623.981 14.816 627.821 18.176 628.493 23.264H645.197C644.333 11.936 636.461 2.528 616.781 2.528C598.349 2.528 589.325 10.784 589.325 22.784C589.325 33.632 595.949 40.16 607.469 41.504L621.389 43.04C626.189 43.712 628.685 45.824 628.685 50.048C628.685 54.464 625.613 57.344 617.453 57.344C608.525 57.344 605.069 52.544 604.589 47.264H588.173Z" fill="#FBF7EC"/>
<path d="M2.184 4.16V2.16H0.184V4.16H2.184ZM2.184 68H0.184V70H2.184V68ZM19.08 54.656H17.08V56.656H19.08V54.656ZM19.08 17.504V15.504H17.08V17.504H19.08ZM34.44 2.16H2.184V6.16H34.44V2.16ZM0.184 4.16V68H4.184V4.16H0.184ZM2.184 70H34.44V66H2.184V70ZM34.44 70C45.3545 70 53.4937 65.9074 58.8702 59.4791C64.204 53.1017 66.68 44.5969 66.68 35.936H62.68C62.68 43.8831 60.404 51.4103 55.8018 56.9129C51.2423 62.3646 44.2615 66 34.44 66V70ZM66.68 35.936C66.68 27.2739 64.2032 18.836 58.8624 12.5277C53.4805 6.17079 45.3415 2.16 34.44 2.16V6.16C44.2745 6.16 51.2555 9.73321 55.8096 15.1123C60.4048 20.54 62.68 27.9901 62.68 35.936H66.68ZM30.6 52.656H19.08V56.656H30.6V52.656ZM21.08 54.656V17.504H17.08V54.656H21.08ZM19.08 19.504H30.6V15.504H19.08V19.504ZM30.6 19.504C36.0333 19.504 39.4764 20.9012 41.6221 23.3562C43.8199 25.8707 45.016 29.8948 45.016 35.936H49.016C49.016 29.4972 47.7641 24.3053 44.6339 20.7238C41.4516 17.0828 36.6867 15.504 30.6 15.504V19.504ZM45.016 35.936C45.016 41.8799 43.8445 45.9954 41.6352 48.6145C39.4867 51.1616 36.0416 52.656 30.6 52.656V56.656C36.7744 56.656 41.5373 54.9344 44.6928 51.1935C47.7875 47.5246 49.016 42.2801 49.016 35.936H45.016ZM89.0175 54.656H87.0175V56.656H89.0175V54.656ZM89.0175 41.696V39.696H87.0175V41.696H89.0175ZM120.314 41.696V43.696H122.314V41.696H120.314ZM120.314 29.312H122.314V27.312H120.314V29.312ZM89.0175 29.312H87.0175V31.312H89.0175V29.312ZM89.0175 17.504V15.504H87.0175V17.504H89.0175ZM123.194 17.504V19.504H125.194V17.504H123.194ZM123.194 4.16H125.194V2.16H123.194V4.16ZM72.1215 4.16V2.16H70.1215V4.16H72.1215ZM72.1215 68H70.1215V70H72.1215V68ZM123.482 68V70H125.482V68H123.482ZM123.482 54.656H125.482V52.656H123.482V54.656ZM91.0175 54.656V41.696H87.0175V54.656H91.0175ZM89.0175 43.696H120.314V39.696H89.0175V43.696ZM122.314 41.696V29.312H118.314V41.696H122.314ZM120.314 27.312H89.0175V31.312H120.314V27.312ZM91.0175 29.312V17.504H87.0175V29.312H91.0175ZM89.0175 19.504H123.194V15.504H89.0175V19.504ZM125.194 17.504V4.16H121.194V17.504H125.194ZM123.194 2.16H72.1215V6.16H123.194V2.16ZM70.1215 4.16V68H74.1215V4.16H70.1215ZM72.1215 70H123.482V66H72.1215V70ZM125.482 68V54.656H121.482V68H125.482ZM123.482 52.656H89.0175V56.656H123.482V52.656ZM216.204 4.16H218.204V2.16H216.204V4.16ZM187.788 4.16V2.16H186.273L185.863 3.61793L187.788 4.16ZM174.732 50.528L172.806 51.0664L174.725 57.9324L176.657 51.0701L174.732 50.528ZM161.772 4.16L163.698 3.62163L163.29 2.16H161.772V4.16ZM132.684 4.16V2.16H130.684V4.16H132.684ZM132.684 68H130.684V70H132.684V68ZM149.58 68V70H151.58V68H149.58ZM149.58 14.72L151.501 14.1628L147.58 14.72H149.58ZM165.036 68L163.115 68.5572L163.534 70H165.036V68ZM183.948 68V70H185.45L185.869 68.5577L183.948 68ZM199.308 15.104H201.308L197.387 14.5463L199.308 15.104ZM199.308 68H197.308V70H199.308V68ZM216.204 68V70H218.204V68H216.204ZM216.204 2.16H187.788V6.16H216.204V2.16ZM185.863 3.61793L172.807 49.9859L176.657 51.0701L189.713 4.70207L185.863 3.61793ZM176.658 49.9896L163.698 3.62163L159.846 4.69837L172.806 51.0664L176.658 49.9896ZM161.772 2.16H132.684V6.16H161.772V2.16ZM130.684 4.16V68H134.684V4.16H130.684ZM132.684 70H149.58V66H132.684V70ZM151.58 68V14.72H147.58V68H151.58ZM147.659 15.2772L163.115 68.5572L166.957 67.4428L151.501 14.1628L147.659 15.2772ZM165.036 70H183.948V66H165.036V70ZM185.869 68.5577L201.229 15.6617L197.387 14.5463L182.027 67.4423L185.869 68.5577ZM197.308 15.104V68H201.308V15.104H197.308ZM199.308 70H216.204V66H199.308V70ZM218.204 68V4.16H214.204V68H218.204ZM258.331 71.536C271.463 71.536 280.652 67.2636 286.527 60.5175C292.359 53.8215 294.699 44.9484 294.699 36.128H290.699C290.699 44.2996 288.527 52.1305 283.511 57.8905C278.538 63.6004 270.543 67.536 258.331 67.536V71.536ZM294.699 36.128C294.699 27.4464 292.356 18.534 286.536 11.7605C280.669 4.93306 271.482 0.527996 258.331 0.527996V4.528C270.524 4.528 278.521 8.57094 283.502 14.3675C288.529 20.218 290.699 28.1056 290.699 36.128H294.699ZM258.331 0.527996C245.275 0.527996 236.113 4.90954 230.247 11.7231C224.427 18.4837 222.059 27.3959 222.059 36.128H226.059C226.059 28.0601 228.251 20.1723 233.278 14.3329C238.26 8.54645 246.234 4.528 258.331 4.528V0.527996ZM222.059 36.128C222.059 44.9989 224.424 53.8718 230.256 60.5549C236.13 67.2872 245.294 71.536 258.331 71.536V67.536C246.216 67.536 238.243 63.6248 233.27 57.9251C228.253 52.1762 226.059 44.3451 226.059 36.128H222.059ZM243.723 36.128C243.723 29.8725 244.599 25.4962 246.697 22.6843C248.687 20.0187 252.106 18.352 258.331 18.352V14.352C251.403 14.352 246.518 16.2373 243.492 20.2917C240.575 24.1998 239.723 29.7115 239.723 36.128H243.723ZM258.331 18.352C264.661 18.352 268.098 20.0242 270.084 22.6843C272.18 25.4927 273.035 29.8638 273.035 36.128H277.035C277.035 29.7202 276.209 24.2033 273.289 20.2917C270.259 16.2318 265.344 14.352 258.331 14.352V18.352ZM273.035 36.128C273.035 42.2905 272.182 46.641 270.084 49.4517C268.095 52.1164 264.653 53.808 258.331 53.808V57.808C265.353 57.808 270.263 55.8996 273.289 51.8443C276.208 47.935 277.035 42.4455 277.035 36.128H273.035ZM258.331 53.808C252.114 53.808 248.691 52.122 246.697 49.4517C244.597 46.6375 243.723 42.2818 243.723 36.128H239.723C239.723 42.4542 240.577 47.9385 243.492 51.8443C246.515 55.894 251.395 57.808 258.331 57.808V53.808ZM349.166 4.16V2.16H347.166V4.16H349.166ZM349.166 54.944L347.251 55.5187L351.166 54.944H349.166ZM346.286 46.688L344.444 47.4658L344.444 47.4673L346.286 46.688ZM328.334 4.16L330.177 3.38221L329.661 2.16H328.334V4.16ZM300.59 4.16V2.16H298.59V4.16H300.59ZM300.59 68H298.59V70H300.59V68ZM316.718 68V70H318.718V68H316.718ZM316.718 17.312L318.644 16.7705L314.718 17.312H316.718ZM319.79 26.336L321.63 25.5517L321.625 25.5408L319.79 26.336ZM337.55 68L335.71 68.7843L336.229 70H337.55V68ZM365.294 68V70H367.294V68H365.294ZM365.294 4.16H367.294V2.16H365.294V4.16ZM347.166 4.16V54.944H351.166V4.16H347.166ZM351.082 54.3693C350.209 51.4596 349.225 48.5011 348.128 45.9087L344.444 47.4673C345.46 49.8669 346.396 52.6684 347.251 55.5187L351.082 54.3693ZM348.129 45.9102L330.177 3.38221L326.492 4.93779L344.444 47.4658L348.129 45.9102ZM328.334 2.16H300.59V6.16H328.334V2.16ZM298.59 4.16V68H302.59V4.16H298.59ZM300.59 70H316.718V66H300.59V70ZM318.718 68V17.312H314.718V68H318.718ZM314.793 17.8535C315.665 20.9536 316.653 24.1274 317.955 27.1312L321.625 25.5408C320.431 22.7846 319.5 19.8144 318.644 16.7705L314.793 17.8535ZM317.95 27.1203L335.71 68.7843L339.39 67.2157L321.63 25.5517L317.95 27.1203ZM337.55 70H365.294V66H337.55V70ZM367.294 68V4.16H363.294V68H367.294ZM365.294 2.16H349.166V6.16H365.294V2.16ZM400.34 4.16V2.16H398.34V4.16H400.34ZM400.34 68H398.34V70H400.34V68ZM417.236 54.656H415.236V56.656H417.236V54.656ZM417.236 17.504V15.504H415.236V17.504H417.236ZM432.596 2.16H400.34V6.16H432.596V2.16ZM398.34 4.16V68H402.34V4.16H398.34ZM400.34 70H432.596V66H400.34V70ZM432.596 70C443.511 70 451.65 65.9074 457.026 59.4791C462.36 53.1017 464.836 44.5969 464.836 35.936H460.836C460.836 43.8831 458.56 51.4103 453.958 56.9129C449.399 62.3646 442.418 66 432.596 66V70ZM464.836 35.936C464.836 27.2739 462.359 18.836 457.019 12.5277C451.637 6.17079 443.498 2.16 432.596 2.16V6.16C442.431 6.16 449.412 9.73321 453.966 15.1123C458.561 20.54 460.836 27.9901 460.836 35.936H464.836ZM428.756 52.656H417.236V56.656H428.756V52.656ZM419.236 54.656V17.504H415.236V54.656H419.236ZM417.236 19.504H428.756V15.504H417.236V19.504ZM428.756 19.504C434.19 19.504 437.633 20.9012 439.778 23.3562C441.976 25.8707 443.172 29.8948 443.172 35.936H447.172C447.172 29.4972 445.92 24.3053 442.79 20.7238C439.608 17.0828 434.843 15.504 428.756 15.504V19.504ZM443.172 35.936C443.172 41.8799 442.001 45.9954 439.791 48.6145C437.643 51.1616 434.198 52.656 428.756 52.656V56.656C434.931 56.656 439.694 54.9344 442.849 51.1935C445.944 47.5246 447.172 42.2801 447.172 35.936H443.172ZM515.327 68L513.436 68.6506L513.9 70H515.327V68ZM532.319 68V70H535.115L534.212 67.3539L532.319 68ZM510.527 4.16L512.42 3.5139L511.958 2.16H510.527V4.16ZM484.511 4.16V2.16H483.081L482.618 3.5139L484.511 4.16ZM462.719 68L460.826 67.3539L459.923 70H462.719V68ZM479.615 68V70H481.042L481.506 68.6506L479.615 68ZM483.743 56V54H482.316L481.852 55.3494L483.743 56ZM511.199 56L513.09 55.3494L512.626 54H511.199V56ZM488.063 43.232L486.172 42.5817L485.261 45.232H488.063V43.232ZM497.471 15.872L499.363 15.2217L497.471 9.72141L495.58 15.2217L497.471 15.872ZM506.879 43.232V45.232H509.682L508.771 42.5817L506.879 43.232ZM515.327 70H532.319V66H515.327V70ZM534.212 67.3539L512.42 3.5139L508.634 4.8061L530.426 68.6461L534.212 67.3539ZM510.527 2.16H484.511V6.16H510.527V2.16ZM482.618 3.5139L460.826 67.3539L464.612 68.6461L486.404 4.8061L482.618 3.5139ZM462.719 70H479.615V66H462.719V70ZM481.506 68.6506L485.634 56.6506L481.852 55.3494L477.724 67.3494L481.506 68.6506ZM483.743 58H511.199V54H483.743V58ZM509.308 56.6506L513.436 68.6506L517.218 67.3494L513.09 55.3494L509.308 56.6506ZM489.955 43.8823L499.363 16.5223L495.58 15.2217L486.172 42.5817L489.955 43.8823ZM495.58 16.5223L504.988 43.8823L508.771 42.5817L499.363 15.2217L495.58 16.5223ZM506.879 41.232H488.063V45.232H506.879V41.232ZM568.784 4.16V2.16H567.49L566.959 3.33996L568.784 4.16ZM559.376 25.088L557.551 24.268L557.542 24.2898L557.532 24.3119L559.376 25.088ZM555.056 35.936L553.163 36.5834L554.986 41.9107L556.932 36.6274L555.056 35.936ZM550.832 25.088L552.675 24.3119L552.67 24.3004L552.665 24.289L550.832 25.088ZM541.712 4.16L543.545 3.36101L543.022 2.16H541.712V4.16ZM522.704 4.16V2.16H519.384L520.935 5.09457L522.704 4.16ZM546.704 49.568H548.704V49.072L548.472 48.6334L546.704 49.568ZM546.704 68H544.704V70H546.704V68ZM563.696 68V70H565.696V68H563.696ZM563.696 49.568L561.924 48.6393L561.696 49.0755V49.568H563.696ZM587.504 4.16L589.275 5.08871L590.81 2.16H587.504V4.16ZM566.959 3.33996L557.551 24.268L561.2 25.908L570.608 4.98003L566.959 3.33996ZM557.532 24.3119C555.99 27.975 554.537 31.5575 553.179 35.2446L556.932 36.6274C558.262 33.0185 559.689 29.497 561.219 25.8641L557.532 24.3119ZM556.948 35.2886C555.677 31.5744 554.216 27.9719 552.675 24.3119L548.988 25.8641C550.519 29.5001 551.938 33.0016 553.163 36.5834L556.948 35.2886ZM552.665 24.289L543.545 3.36101L539.878 4.95899L548.998 25.887L552.665 24.289ZM541.712 2.16H522.704V6.16H541.712V2.16ZM520.935 5.09457L544.935 50.5026L548.472 48.6334L524.472 3.22542L520.935 5.09457ZM544.704 49.568V68H548.704V49.568H544.704ZM546.704 70H563.696V66H546.704V70ZM565.696 68V49.568H561.696V68H565.696ZM565.467 50.4967L589.275 5.08871L585.732 3.23128L561.924 48.6393L565.467 50.4967ZM587.504 2.16H568.784V6.16H587.504V2.16ZM588.173 47.264V45.264H586.051L586.176 47.3814L588.173 47.264ZM625.421 29.12L625.217 31.1096L625.23 31.1109L625.421 29.12ZM613.229 27.872L612.995 29.8583L613.01 29.8601L613.025 29.8616L613.229 27.872ZM628.493 23.264L626.51 23.5259L626.739 25.264H628.493V23.264ZM645.197 23.264V25.264H647.355L647.191 23.1119L645.197 23.264ZM607.469 41.504L607.237 43.4906L607.249 43.4919L607.469 41.504ZM621.389 43.04L621.666 41.0593L621.637 41.0553L621.608 41.0521L621.389 43.04ZM604.589 47.264L606.58 47.0829L606.415 45.264H604.589V47.264ZM586.176 47.3814C586.534 53.4743 588.675 59.6068 593.684 64.2053C598.692 68.803 606.312 71.632 617.165 71.632V67.632C606.993 67.632 600.453 64.989 596.389 61.2587C592.326 57.5292 590.483 52.4777 590.169 47.1466L586.176 47.3814ZM617.165 71.632C627.754 71.632 635.437 69.483 640.501 65.3917C645.645 61.236 647.773 55.3367 647.773 48.608H643.773C643.773 54.4553 641.964 59.068 637.988 62.2803C633.932 65.557 627.311 67.632 617.165 67.632V71.632ZM647.773 48.608C647.773 42.4733 646.075 37.3593 642.251 33.6184C638.467 29.9155 632.869 27.8251 625.611 27.1291L625.23 31.1109C631.988 31.7589 636.566 33.6525 639.454 36.4776C642.302 39.2647 643.773 43.2227 643.773 48.608H647.773ZM625.624 27.1304L613.432 25.8824L613.025 29.8616L625.217 31.1096L625.624 27.1304ZM613.462 25.8857C611.279 25.6289 610.059 24.9983 609.391 24.338C608.759 23.7128 608.413 22.8539 608.413 21.632H604.413C604.413 23.6741 605.026 25.6472 606.578 27.182C608.094 28.6816 610.282 29.5391 612.995 29.8583L613.462 25.8857ZM608.413 21.632C608.413 20.2251 609.007 19.1324 610.253 18.3076C611.585 17.4254 613.741 16.816 616.781 16.816V12.816C613.292 12.816 610.264 13.5026 608.044 14.9724C605.738 16.4996 604.413 18.8149 604.413 21.632H608.413ZM616.781 16.816C620.085 16.816 622.377 17.5871 623.875 18.7249C625.342 19.8385 626.235 21.4422 626.51 23.5259L630.475 23.0021C630.078 19.9978 628.715 17.3775 626.294 15.5391C623.904 13.7249 620.676 12.816 616.781 12.816V16.816ZM628.493 25.264H645.197V21.264H628.493V25.264ZM647.191 23.1119C646.726 17.0171 644.352 11.2879 639.322 7.10955C634.318 2.95239 626.922 0.527996 616.781 0.527996V4.528C626.319 4.528 632.699 6.8076 636.767 10.1864C640.809 13.5441 642.803 18.1829 643.202 23.4161L647.191 23.1119ZM616.781 0.527996C607.299 0.527996 599.94 2.64768 594.909 6.5802C589.814 10.5625 587.325 16.2352 587.325 22.784H591.325C591.325 17.3328 593.347 12.8775 597.372 9.73179C601.461 6.53631 607.83 4.528 616.781 4.528V0.527996ZM587.325 22.784C587.325 28.6343 589.123 33.5144 592.649 37.1086C596.151 40.6791 601.163 42.782 607.237 43.4905L607.7 39.5175C602.254 38.882 598.194 37.0489 595.504 34.3074C592.838 31.5896 591.325 27.7817 591.325 22.784H587.325ZM607.249 43.4919L621.169 45.0279L621.608 41.0521L607.688 39.5161L607.249 43.4919ZM621.111 45.0207C623.316 45.3294 624.675 45.932 625.473 46.6755C626.204 47.3564 626.685 48.3602 626.685 50.048H630.685C630.685 47.5118 629.917 45.3476 628.2 43.7485C626.55 42.212 624.261 41.4226 621.666 41.0593L621.111 45.0207ZM626.685 50.048C626.685 51.733 626.136 52.8922 624.969 53.7223C623.674 54.6433 621.359 55.344 617.453 55.344V59.344C621.706 59.344 625.007 58.6047 627.288 56.9817C629.697 55.2678 630.685 52.779 630.685 50.048H626.685ZM617.453 55.344C613.348 55.344 610.78 54.247 609.2 52.8061C607.613 51.3596 606.787 49.352 606.58 47.0829L602.597 47.4451C602.87 50.456 604.012 53.4884 606.505 55.7619C609.005 58.041 612.629 59.344 617.453 59.344V55.344ZM604.589 45.264H588.173V49.264H604.589V45.264Z" fill="#FBF7EC"/>
</svg>
