<svg width="504" height="72" viewBox="0 0 504 72" fill="none" xmlns="http://www.w3.org/2000/svg">
<path d="M32.984 69.536C47 69.536 52.856 63.104 55.352 56.288V68H69.464V32.96H32.792V43.616H53.432C52.376 50.816 48.536 56.48 37.016 56.48C25.592 56.48 20.504 49.664 20.504 36.128C20.504 21.728 26.648 15.584 38.072 15.584C47.192 15.584 51.896 19.712 52.664 25.28H69.56C68.696 12.8 60.056 2.528 37.976 2.528C13.112 2.528 2.84 17.6 2.84 36.128C2.84 54.272 12.152 69.536 32.984 69.536ZM111.081 69.536C136.425 69.536 145.449 53.12 145.449 36.128C145.449 19.424 136.425 2.528 111.081 2.528C85.9288 2.528 76.8088 19.328 76.8088 36.128C76.8088 53.216 85.9288 69.536 111.081 69.536ZM94.4728 36.128C94.4728 23.456 97.9288 16.352 111.081 16.352C124.425 16.352 127.785 23.456 127.785 36.128C127.785 48.608 124.425 55.808 111.081 55.808C97.9288 55.808 94.4728 48.608 94.4728 36.128ZM208.444 52.928C208.444 43.52 202.876 40.16 196.252 38.72C204.22 37.088 210.076 30.944 210.076 21.824C210.076 11.552 203.068 4.16 188.668 4.16H153.34V68H170.428V44.864H182.044C187.516 44.864 191.452 47.744 191.452 53.888V56.48C191.452 61.76 191.836 65.408 192.604 68H209.692C209.02 64.352 208.444 61.664 208.444 56.48V52.928ZM184.156 32.768H170.428V17.12H184.252C189.916 17.12 192.412 19.616 192.412 24.608C192.412 30.08 190.012 32.768 184.156 32.768ZM257.857 17.504V4.16H218.497V17.504H229.729V54.656H218.497V68H257.857V54.656H246.625V17.504H257.857ZM284.991 54.656V4.16H267.903V68H313.695V54.656H284.991ZM338.241 54.656V4.16H321.153V68H366.945V54.656H338.241ZM423.296 68H440.288L418.496 4.16H392.48L370.688 68H387.584L391.712 56H419.168L423.296 68ZM396.032 43.232L405.44 15.872L414.848 43.232H396.032ZM466.036 54.656L501.652 17.504V4.16H445.012V17.504H479.572L444.052 54.656V68H501.94V54.656H466.036Z" fill="#FBF7EC"/>
<path d="M55.352 56.288H57.352L53.474 55.6003L55.352 56.288ZM55.352 68H53.352V70H55.352V68ZM69.464 68V70H71.464V68H69.464ZM69.464 32.96H71.464V30.96H69.464V32.96ZM32.792 32.96V30.96H30.792V32.96H32.792ZM32.792 43.616H30.792V45.616H32.792V43.616ZM53.432 43.616L55.4108 43.9062L55.7467 41.616H53.432V43.616ZM52.664 25.28L50.6828 25.5533L50.9209 27.28H52.664V25.28ZM69.56 25.28V27.28H71.7033L71.5552 25.1419L69.56 25.28ZM32.984 71.536C40.301 71.536 45.6947 69.8539 49.6319 67.1086C53.5717 64.3614 55.8761 60.6731 57.23 56.9757L53.474 55.6003C52.3319 58.7189 50.4603 61.6546 47.3441 63.8274C44.2253 66.0021 39.683 67.536 32.984 67.536V71.536ZM53.352 56.288V68H57.352V56.288H53.352ZM55.352 70H69.464V66H55.352V70ZM71.464 68V32.96H67.464V68H71.464ZM69.464 30.96H32.792V34.96H69.464V30.96ZM30.792 32.96V43.616H34.792V32.96H30.792ZM32.792 45.616H53.432V41.616H32.792V45.616ZM51.4532 43.3258C50.9614 46.6791 49.8615 49.3849 47.7981 51.2722C45.7492 53.1464 42.4567 54.48 37.016 54.48V58.48C43.0953 58.48 47.4828 56.9816 50.4979 54.2238C53.4985 51.4791 54.8467 47.7529 55.4108 43.9062L51.4532 43.3258ZM37.016 54.48C31.7185 54.48 28.2553 52.9198 26.0415 50.1353C23.752 47.2556 22.504 42.7078 22.504 36.128H18.504C18.504 43.0842 19.8 48.7124 22.9105 52.6247C26.0967 56.6322 30.8895 58.48 37.016 58.48V54.48ZM22.504 36.128C22.504 29.1627 23.9971 24.6004 26.4991 21.7844C28.9576 19.0173 32.7095 17.584 38.072 17.584V13.584C32.0105 13.584 26.9784 15.2227 23.5089 19.1276C20.0829 22.9836 18.504 28.6933 18.504 36.128H22.504ZM38.072 17.584C42.3465 17.584 45.3566 18.5523 47.3352 19.9698C49.2793 21.3626 50.37 23.286 50.6828 25.5533L54.6452 25.0067C54.19 21.706 52.5447 18.7814 49.6648 16.7182C46.8194 14.6797 42.9175 13.584 38.072 13.584V17.584ZM52.664 27.28H69.56V23.28H52.664V27.28ZM71.5552 25.1419C71.093 18.465 68.5264 12.2211 62.9931 7.67822C57.4925 3.16221 49.3045 0.527996 37.976 0.527996V4.528C48.7276 4.528 55.8995 7.02978 60.4549 10.7698C64.9776 14.4829 67.163 19.6149 67.5648 25.4181L71.5552 25.1419ZM37.976 0.527996C25.1282 0.527996 15.7611 4.43486 9.6216 11.0157C3.50704 17.5698 0.84 26.5129 0.84 36.128H4.84C4.84 27.2151 7.30896 19.3582 12.5464 13.7443C17.7589 8.15713 25.9598 4.528 37.976 4.528V0.527996ZM0.84 36.128C0.84 45.5127 3.24546 54.3564 8.54637 60.8955C13.8967 67.4955 22.029 71.536 32.984 71.536V67.536C23.107 67.536 16.1673 63.9445 11.6536 58.3765C7.09054 52.7476 4.84 44.8873 4.84 36.128H0.84ZM111.081 71.536C124.213 71.536 133.402 67.2636 139.277 60.5175C145.109 53.8215 147.449 44.9484 147.449 36.128H143.449C143.449 44.2996 141.277 52.1305 136.261 57.8905C131.288 63.6004 123.293 67.536 111.081 67.536V71.536ZM147.449 36.128C147.449 27.4464 145.106 18.534 139.286 11.7605C133.419 4.93306 124.232 0.527996 111.081 0.527996V4.528C123.274 4.528 131.271 8.57094 136.252 14.3675C141.279 20.218 143.449 28.1056 143.449 36.128H147.449ZM111.081 0.527996C98.0251 0.527996 88.8632 4.90954 82.9971 11.7231C77.1766 18.4837 74.8088 27.3959 74.8088 36.128H78.8088C78.8088 28.0601 81.0009 20.1723 86.0284 14.3329C91.0103 8.54645 98.9845 4.528 111.081 4.528V0.527996ZM74.8088 36.128C74.8088 44.9989 77.1742 53.8718 83.0058 60.5549C88.8802 67.2872 98.0439 71.536 111.081 71.536V67.536C98.9656 67.536 90.9933 63.6248 86.0197 57.9251C81.0033 52.1762 78.8088 44.3451 78.8088 36.128H74.8088ZM96.4728 36.128C96.4728 29.8725 97.3486 25.4962 99.4475 22.6843C101.437 20.0187 104.856 18.352 111.081 18.352V14.352C104.153 14.352 99.2683 16.2373 96.242 20.2917C93.3249 24.1998 92.4728 29.7115 92.4728 36.128H96.4728ZM111.081 18.352C117.411 18.352 120.848 20.0242 122.834 22.6843C124.93 25.4927 125.785 29.8638 125.785 36.128H129.785C129.785 29.7202 128.959 24.2033 126.039 20.2917C123.009 16.2318 118.094 14.352 111.081 14.352V18.352ZM125.785 36.128C125.785 42.2905 124.932 46.641 122.834 49.4517C120.845 52.1164 117.403 53.808 111.081 53.808V57.808C118.103 57.808 123.013 55.8996 126.039 51.8443C128.958 47.935 129.785 42.4455 129.785 36.128H125.785ZM111.081 53.808C104.864 53.808 101.441 52.122 99.4475 49.4517C97.3469 46.6375 96.4728 42.2818 96.4728 36.128H92.4728C92.4728 42.4542 93.3266 47.9385 96.242 51.8443C99.2648 55.894 104.145 57.808 111.081 57.808V53.808ZM196.252 38.72L195.851 36.7607L195.827 40.6744L196.252 38.72ZM153.34 4.16V2.16H151.34V4.16H153.34ZM153.34 68H151.34V70H153.34V68ZM170.428 68V70H172.428V68H170.428ZM170.428 44.864V42.864H168.428V44.864H170.428ZM192.604 68L190.687 68.5682L191.111 70H192.604V68ZM209.692 68V70H212.094L211.659 67.6377L209.692 68ZM170.428 32.768H168.428V34.768H170.428V32.768ZM170.428 17.12V15.12H168.428V17.12H170.428ZM210.444 52.928C210.444 47.7957 208.908 44.0542 206.239 41.4141C203.63 38.8335 200.154 37.5214 196.677 36.7656L195.827 40.6744C198.975 41.3586 201.595 42.4465 203.426 44.2579C205.197 46.0098 206.444 48.6523 206.444 52.928H210.444ZM196.654 40.6793C205.475 38.8725 212.076 31.9703 212.076 21.824H208.076C208.076 29.9177 202.965 35.3035 195.851 36.7607L196.654 40.6793ZM212.076 21.824C212.076 16.2131 210.147 11.2126 206.095 7.63988C202.072 4.09251 196.193 2.16 188.668 2.16V6.16C195.544 6.16 200.369 7.92349 203.45 10.6401C206.502 13.3314 208.076 17.1629 208.076 21.824H212.076ZM188.668 2.16H153.34V6.16H188.668V2.16ZM151.34 4.16V68H155.34V4.16H151.34ZM153.34 70H170.428V66H153.34V70ZM172.428 68V44.864H168.428V68H172.428ZM170.428 46.864H182.044V42.864H170.428V46.864ZM182.044 46.864C184.451 46.864 186.273 47.4973 187.469 48.5644C188.628 49.5987 189.452 51.264 189.452 53.888H193.452C193.452 50.368 192.308 47.5213 190.132 45.5796C187.992 43.6707 185.109 42.864 182.044 42.864V46.864ZM189.452 53.888V56.48H193.452V53.888H189.452ZM189.452 56.48C189.452 61.819 189.836 65.6969 190.687 68.5682L194.522 67.4318C193.837 65.1191 193.452 61.701 193.452 56.48H189.452ZM192.604 70H209.692V66H192.604V70ZM211.659 67.6377C210.988 63.9935 210.444 61.4641 210.444 56.48H206.444C206.444 61.8639 207.053 64.7105 207.725 68.3623L211.659 67.6377ZM210.444 56.48V52.928H206.444V56.48H210.444ZM184.156 30.768H170.428V34.768H184.156V30.768ZM172.428 32.768V17.12H168.428V32.768H172.428ZM170.428 19.12H184.252V15.12H170.428V19.12ZM184.252 19.12C186.837 19.12 188.282 19.6953 189.089 20.4515C189.868 21.1818 190.412 22.421 190.412 24.608H194.412C194.412 21.803 193.708 19.2982 191.824 17.5325C189.967 15.7927 187.331 15.12 184.252 15.12V19.12ZM190.412 24.608C190.412 27.0994 189.86 28.5173 189.053 29.3385C188.253 30.153 186.821 30.768 184.156 30.768V34.768C187.348 34.768 190.043 34.039 191.907 32.1415C193.764 30.2507 194.412 27.5886 194.412 24.608H190.412ZM257.857 17.504V19.504H259.857V17.504H257.857ZM257.857 4.16H259.857V2.16H257.857V4.16ZM218.497 4.16V2.16H216.497V4.16H218.497ZM218.497 17.504H216.497V19.504H218.497V17.504ZM229.729 17.504H231.729V15.504H229.729V17.504ZM229.729 54.656V56.656H231.729V54.656H229.729ZM218.497 54.656V52.656H216.497V54.656H218.497ZM218.497 68H216.497V70H218.497V68ZM257.857 68V70H259.857V68H257.857ZM257.857 54.656H259.857V52.656H257.857V54.656ZM246.625 54.656H244.625V56.656H246.625V54.656ZM246.625 17.504V15.504H244.625V17.504H246.625ZM259.857 17.504V4.16H255.857V17.504H259.857ZM257.857 2.16H218.497V6.16H257.857V2.16ZM216.497 4.16V17.504H220.497V4.16H216.497ZM218.497 19.504H229.729V15.504H218.497V19.504ZM227.729 17.504V54.656H231.729V17.504H227.729ZM229.729 52.656H218.497V56.656H229.729V52.656ZM216.497 54.656V68H220.497V54.656H216.497ZM218.497 70H257.857V66H218.497V70ZM259.857 68V54.656H255.857V68H259.857ZM257.857 52.656H246.625V56.656H257.857V52.656ZM248.625 54.656V17.504H244.625V54.656H248.625ZM246.625 19.504H257.857V15.504H246.625V19.504ZM284.991 54.656H282.991V56.656H284.991V54.656ZM284.991 4.16H286.991V2.16H284.991V4.16ZM267.903 4.16V2.16H265.903V4.16H267.903ZM267.903 68H265.903V70H267.903V68ZM313.695 68V70H315.695V68H313.695ZM313.695 54.656H315.695V52.656H313.695V54.656ZM286.991 54.656V4.16H282.991V54.656H286.991ZM284.991 2.16H267.903V6.16H284.991V2.16ZM265.903 4.16V68H269.903V4.16H265.903ZM267.903 70H313.695V66H267.903V70ZM315.695 68V54.656H311.695V68H315.695ZM313.695 52.656H284.991V56.656H313.695V52.656ZM338.241 54.656H336.241V56.656H338.241V54.656ZM338.241 4.16H340.241V2.16H338.241V4.16ZM321.153 4.16V2.16H319.153V4.16H321.153ZM321.153 68H319.153V70H321.153V68ZM366.945 68V70H368.945V68H366.945ZM366.945 54.656H368.945V52.656H366.945V54.656ZM340.241 54.656V4.16H336.241V54.656H340.241ZM338.241 2.16H321.153V6.16H338.241V2.16ZM319.153 4.16V68H323.153V4.16H319.153ZM321.153 70H366.945V66H321.153V70ZM368.945 68V54.656H364.945V68H368.945ZM366.945 52.656H338.241V56.656H366.945V52.656ZM423.296 68L421.405 68.6506L421.869 70H423.296V68ZM440.288 68V70H443.084L442.181 67.3539L440.288 68ZM418.496 4.16L420.389 3.5139L419.927 2.16H418.496V4.16ZM392.48 4.16V2.16H391.049L390.587 3.5139L392.48 4.16ZM370.688 68L368.795 67.3539L367.892 70H370.688V68ZM387.584 68V70H389.011L389.475 68.6506L387.584 68ZM391.712 56V54H390.285L389.821 55.3494L391.712 56ZM419.168 56L421.059 55.3494L420.595 54H419.168V56ZM396.032 43.232L394.141 42.5817L393.229 45.232H396.032V43.232ZM405.44 15.872L407.331 15.2217L405.44 9.72141L403.549 15.2217L405.44 15.872ZM414.848 43.232V45.232H417.651L416.739 42.5817L414.848 43.232ZM423.296 70H440.288V66H423.296V70ZM442.181 67.3539L420.389 3.5139L416.603 4.8061L438.395 68.6461L442.181 67.3539ZM418.496 2.16H392.48V6.16H418.496V2.16ZM390.587 3.5139L368.795 67.3539L372.581 68.6461L394.373 4.8061L390.587 3.5139ZM370.688 70H387.584V66H370.688V70ZM389.475 68.6506L393.603 56.6506L389.821 55.3494L385.693 67.3494L389.475 68.6506ZM391.712 58H419.168V54H391.712V58ZM417.277 56.6506L421.405 68.6506L425.187 67.3494L421.059 55.3494L417.277 56.6506ZM397.923 43.8823L407.331 16.5223L403.549 15.2217L394.141 42.5817L397.923 43.8823ZM403.549 16.5223L412.957 43.8823L416.739 42.5817L407.331 15.2217L403.549 16.5223ZM414.848 41.232H396.032V45.232H414.848V41.232ZM466.036 54.656L464.593 53.2719L461.348 56.656H466.036V54.656ZM501.652 17.504L503.096 18.8881L503.652 18.3078V17.504H501.652ZM501.652 4.16H503.652V2.16H501.652V4.16ZM445.012 4.16V2.16H443.012V4.16H445.012ZM445.012 17.504H443.012V19.504H445.012V17.504ZM479.572 17.504L481.018 18.8861L484.251 15.504H479.572V17.504ZM444.052 54.656L442.607 53.2739L442.052 53.8538V54.656H444.052ZM444.052 68H442.052V70H444.052V68ZM501.94 68V70H503.94V68H501.94ZM501.94 54.656H503.94V52.656H501.94V54.656ZM467.48 56.0401L503.096 18.8881L500.209 16.1199L464.593 53.2719L467.48 56.0401ZM503.652 17.504V4.16H499.652V17.504H503.652ZM501.652 2.16H445.012V6.16H501.652V2.16ZM443.012 4.16V17.504H447.012V4.16H443.012ZM445.012 19.504H479.572V15.504H445.012V19.504ZM478.127 16.1219L442.607 53.2739L445.498 56.0381L481.018 18.8861L478.127 16.1219ZM442.052 54.656V68H446.052V54.656H442.052ZM444.052 70H501.94V66H444.052V70ZM503.94 68V54.656H499.94V68H503.94ZM501.94 52.656H466.036V56.656H501.94V52.656Z" fill="#FBF7EC"/>
</svg>
