<svg width="447" height="68" viewBox="0 0 447 68" fill="none" xmlns="http://www.w3.org/2000/svg">
<path d="M60.96 2.16H2.976V15.504H23.52V66H40.512V15.504H60.96V2.16ZM109.799 2.16V27.024H83.1113V2.16H66.2153V66H83.1113V40.176H109.799V66H126.695V2.16H109.799ZM153.986 52.656V39.696H185.282V27.312H153.986V15.504H188.162V2.16H137.09V66H188.45V52.656H153.986ZM273.182 15.504V2.16H222.59V66H239.486V41.136H269.726V28.752H239.486V15.504H273.182ZM323.046 66H340.038L318.246 2.16H292.23L270.438 66H287.334L291.462 54H318.918L323.046 66ZM295.782 41.232L305.19 13.872L314.598 41.232H295.782ZM362.397 52.656V2.16H345.309V66H391.101V52.656H362.397ZM415.647 52.656V2.16H398.559V66H444.351V52.656H415.647Z" fill="#FBF7EC"/>
<path d="M60.96 2.16H62.96V0.159998H60.96V2.16ZM2.976 2.16V0.159998H0.976V2.16H2.976ZM2.976 15.504H0.976V17.504H2.976V15.504ZM23.52 15.504H25.52V13.504H23.52V15.504ZM23.52 66H21.52V68H23.52V66ZM40.512 66V68H42.512V66H40.512ZM40.512 15.504V13.504H38.512V15.504H40.512ZM60.96 15.504V17.504H62.96V15.504H60.96ZM60.96 0.159998H2.976V4.16H60.96V0.159998ZM0.976 2.16V15.504H4.976V2.16H0.976ZM2.976 17.504H23.52V13.504H2.976V17.504ZM21.52 15.504V66H25.52V15.504H21.52ZM23.52 68H40.512V64H23.52V68ZM42.512 66V15.504H38.512V66H42.512ZM40.512 17.504H60.96V13.504H40.512V17.504ZM62.96 15.504V2.16H58.96V15.504H62.96ZM109.799 2.16V0.159998H107.799V2.16H109.799ZM109.799 27.024V29.024H111.799V27.024H109.799ZM83.1113 27.024H81.1113V29.024H83.1113V27.024ZM83.1113 2.16H85.1113V0.159998H83.1113V2.16ZM66.2153 2.16V0.159998H64.2153V2.16H66.2153ZM66.2153 66H64.2153V68H66.2153V66ZM83.1113 66V68H85.1113V66H83.1113ZM83.1113 40.176V38.176H81.1113V40.176H83.1113ZM109.799 40.176H111.799V38.176H109.799V40.176ZM109.799 66H107.799V68H109.799V66ZM126.695 66V68H128.695V66H126.695ZM126.695 2.16H128.695V0.159998H126.695V2.16ZM107.799 2.16V27.024H111.799V2.16H107.799ZM109.799 25.024H83.1113V29.024H109.799V25.024ZM85.1113 27.024V2.16H81.1113V27.024H85.1113ZM83.1113 0.159998H66.2153V4.16H83.1113V0.159998ZM64.2153 2.16V66H68.2153V2.16H64.2153ZM66.2153 68H83.1113V64H66.2153V68ZM85.1113 66V40.176H81.1113V66H85.1113ZM83.1113 42.176H109.799V38.176H83.1113V42.176ZM107.799 40.176V66H111.799V40.176H107.799ZM109.799 68H126.695V64H109.799V68ZM128.695 66V2.16H124.695V66H128.695ZM126.695 0.159998H109.799V4.16H126.695V0.159998ZM153.986 52.656H151.986V54.656H153.986V52.656ZM153.986 39.696V37.696H151.986V39.696H153.986ZM185.282 39.696V41.696H187.282V39.696H185.282ZM185.282 27.312H187.282V25.312H185.282V27.312ZM153.986 27.312H151.986V29.312H153.986V27.312ZM153.986 15.504V13.504H151.986V15.504H153.986ZM188.162 15.504V17.504H190.162V15.504H188.162ZM188.162 2.16H190.162V0.159998H188.162V2.16ZM137.09 2.16V0.159998H135.09V2.16H137.09ZM137.09 66H135.09V68H137.09V66ZM188.45 66V68H190.45V66H188.45ZM188.45 52.656H190.45V50.656H188.45V52.656ZM155.986 52.656V39.696H151.986V52.656H155.986ZM153.986 41.696H185.282V37.696H153.986V41.696ZM187.282 39.696V27.312H183.282V39.696H187.282ZM185.282 25.312H153.986V29.312H185.282V25.312ZM155.986 27.312V15.504H151.986V27.312H155.986ZM153.986 17.504H188.162V13.504H153.986V17.504ZM190.162 15.504V2.16H186.162V15.504H190.162ZM188.162 0.159998H137.09V4.16H188.162V0.159998ZM135.09 2.16V66H139.09V2.16H135.09ZM137.09 68H188.45V64H137.09V68ZM190.45 66V52.656H186.45V66H190.45ZM188.45 50.656H153.986V54.656H188.45V50.656ZM273.182 15.504V17.504H275.182V15.504H273.182ZM273.182 2.16H275.182V0.159998H273.182V2.16ZM222.59 2.16V0.159998H220.59V2.16H222.59ZM222.59 66H220.59V68H222.59V66ZM239.486 66V68H241.486V66H239.486ZM239.486 41.136V39.136H237.486V41.136H239.486ZM269.726 41.136V43.136H271.726V41.136H269.726ZM269.726 28.752H271.726V26.752H269.726V28.752ZM239.486 28.752H237.486V30.752H239.486V28.752ZM239.486 15.504V13.504H237.486V15.504H239.486ZM275.182 15.504V2.16H271.182V15.504H275.182ZM273.182 0.159998H222.59V4.16H273.182V0.159998ZM220.59 2.16V66H224.59V2.16H220.59ZM222.59 68H239.486V64H222.59V68ZM241.486 66V41.136H237.486V66H241.486ZM239.486 43.136H269.726V39.136H239.486V43.136ZM271.726 41.136V28.752H267.726V41.136H271.726ZM269.726 26.752H239.486V30.752H269.726V26.752ZM241.486 28.752V15.504H237.486V28.752H241.486ZM239.486 17.504H273.182V13.504H239.486V17.504ZM323.046 66L321.155 66.6506L321.619 68H323.046V66ZM340.038 66V68H342.834L341.931 65.3539L340.038 66ZM318.246 2.16L320.139 1.5139L319.677 0.159998H318.246V2.16ZM292.23 2.16V0.159998H290.799L290.337 1.5139L292.23 2.16ZM270.438 66L268.545 65.3539L267.642 68H270.438V66ZM287.334 66V68H288.761L289.225 66.6506L287.334 66ZM291.462 54V52H290.035L289.571 53.3494L291.462 54ZM318.918 54L320.809 53.3494L320.345 52H318.918V54ZM295.782 41.232L293.891 40.5817L292.979 43.232H295.782V41.232ZM305.19 13.872L307.081 13.2217L305.19 7.72141L303.299 13.2217L305.19 13.872ZM314.598 41.232V43.232H317.401L316.489 40.5817L314.598 41.232ZM323.046 68H340.038V64H323.046V68ZM341.931 65.3539L320.139 1.5139L316.353 2.8061L338.145 66.6461L341.931 65.3539ZM318.246 0.159998H292.23V4.16H318.246V0.159998ZM290.337 1.5139L268.545 65.3539L272.331 66.6461L294.123 2.8061L290.337 1.5139ZM270.438 68H287.334V64H270.438V68ZM289.225 66.6506L293.353 54.6506L289.571 53.3494L285.443 65.3494L289.225 66.6506ZM291.462 56H318.918V52H291.462V56ZM317.027 54.6506L321.155 66.6506L324.937 65.3494L320.809 53.3494L317.027 54.6506ZM297.673 41.8823L307.081 14.5223L303.299 13.2217L293.891 40.5817L297.673 41.8823ZM303.299 14.5223L312.707 41.8823L316.489 40.5817L307.081 13.2217L303.299 14.5223ZM314.598 39.232H295.782V43.232H314.598V39.232ZM362.397 52.656H360.397V54.656H362.397V52.656ZM362.397 2.16H364.397V0.159998H362.397V2.16ZM345.309 2.16V0.159998H343.309V2.16H345.309ZM345.309 66H343.309V68H345.309V66ZM391.101 66V68H393.101V66H391.101ZM391.101 52.656H393.101V50.656H391.101V52.656ZM364.397 52.656V2.16H360.397V52.656H364.397ZM362.397 0.159998H345.309V4.16H362.397V0.159998ZM343.309 2.16V66H347.309V2.16H343.309ZM345.309 68H391.101V64H345.309V68ZM393.101 66V52.656H389.101V66H393.101ZM391.101 50.656H362.397V54.656H391.101V50.656ZM415.647 52.656H413.647V54.656H415.647V52.656ZM415.647 2.16H417.647V0.159998H415.647V2.16ZM398.559 2.16V0.159998H396.559V2.16H398.559ZM398.559 66H396.559V68H398.559V66ZM444.351 66V68H446.351V66H444.351ZM444.351 52.656H446.351V50.656H444.351V52.656ZM417.647 52.656V2.16H413.647V52.656H417.647ZM415.647 0.159998H398.559V4.16H415.647V0.159998ZM396.559 2.16V66H400.559V2.16H396.559ZM398.559 68H444.351V64H398.559V68ZM446.351 66V52.656H442.351V66H446.351ZM444.351 50.656H415.647V54.656H444.351V50.656Z" fill="#FBF7EC"/>
</svg>
