<svg width="277" height="66" viewBox="0 0 277 66" fill="none" xmlns="http://www.w3.org/2000/svg">
<path d="M84.704 1.16H56.288L43.232 47.528L30.272 1.16H1.184V65H18.08V11.72L33.536 65H52.448L67.808 12.104V65H84.704V1.16ZM139.702 65H156.694L134.902 1.16H108.886L87.0943 65H103.99L108.118 53H135.574L139.702 65ZM112.438 40.232L121.846 12.872L131.254 40.232H112.438ZM200.575 14.504V1.16H161.215V14.504H172.447V51.656H161.215V65H200.575V51.656H189.343V14.504H200.575ZM259.198 1.16V51.944C258.333 49.064 257.374 46.184 256.318 43.688L238.366 1.16H210.622V65H226.75V14.312C227.614 17.384 228.574 20.456 229.822 23.336L247.582 65H275.326V1.16H259.198Z" fill="#252529"/>
<path d="M84.704 1.16H85.704V0.159998H84.704V1.16ZM56.288 1.16V0.159998H55.5307L55.3254 0.888964L56.288 1.16ZM43.232 47.528L42.2689 47.7972L43.2284 51.2302L44.1946 47.799L43.232 47.528ZM30.272 1.16L31.2351 0.890812L31.0308 0.159998H30.272V1.16ZM1.184 1.16V0.159998H0.184V1.16H1.184ZM1.184 65H0.184V66H1.184V65ZM18.08 65V66H19.08V65H18.08ZM18.08 11.72L19.0404 11.4414L17.08 11.72H18.08ZM33.536 65L32.5756 65.2786L32.7849 66H33.536V65ZM52.448 65V66H53.1989L53.4083 65.2789L52.448 65ZM67.808 12.104H68.808L66.8477 11.8251L67.808 12.104ZM67.808 65H66.808V66H67.808V65ZM84.704 65V66H85.704V65H84.704ZM84.704 0.159998H56.288V2.16H84.704V0.159998ZM55.3254 0.888964L42.2694 47.257L44.1946 47.799L57.2506 1.43103L55.3254 0.888964ZM44.1951 47.2588L31.2351 0.890812L29.3089 1.42918L42.2689 47.7972L44.1951 47.2588ZM30.272 0.159998H1.184V2.16H30.272V0.159998ZM0.184 1.16V65H2.184V1.16H0.184ZM1.184 66H18.08V64H1.184V66ZM19.08 65V11.72H17.08V65H19.08ZM17.1196 11.9986L32.5756 65.2786L34.4964 64.7214L19.0404 11.4414L17.1196 11.9986ZM33.536 66H52.448V64H33.536V66ZM53.4083 65.2789L68.7683 12.3829L66.8477 11.8251L51.4877 64.7211L53.4083 65.2789ZM66.808 12.104V65H68.808V12.104H66.808ZM67.808 66H84.704V64H67.808V66ZM85.704 65V1.16H83.704V65H85.704ZM139.702 65L138.757 65.3253L138.989 66H139.702V65ZM156.694 65V66H158.092L157.641 64.6769L156.694 65ZM134.902 1.16L135.849 0.836947L135.618 0.159998H134.902V1.16ZM108.886 1.16V0.159998H108.171L107.94 0.836947L108.886 1.16ZM87.0943 65L86.1479 64.6769L85.6962 66H87.0943V65ZM103.99 65V66H104.704L104.936 65.3253L103.99 65ZM108.118 53V52H107.405L107.173 52.6747L108.118 53ZM135.574 53L136.52 52.6747L136.288 52H135.574V53ZM112.438 40.232L111.493 39.9068L111.037 41.232H112.438V40.232ZM121.846 12.872L122.792 12.5468L121.846 9.7967L120.901 12.5468L121.846 12.872ZM131.254 40.232V41.232H132.656L132.2 39.9068L131.254 40.232ZM139.702 66H156.694V64H139.702V66ZM157.641 64.6769L135.849 0.836947L133.956 1.48305L155.748 65.3231L157.641 64.6769ZM134.902 0.159998H108.886V2.16H134.902V0.159998ZM107.94 0.836947L86.1479 64.6769L88.0406 65.3231L109.833 1.48305L107.94 0.836947ZM87.0943 66H103.99V64H87.0943V66ZM104.936 65.3253L109.064 53.3253L107.173 52.6747L103.045 64.6747L104.936 65.3253ZM108.118 54H135.574V52H108.118V54ZM134.629 53.3253L138.757 65.3253L140.648 64.6747L136.52 52.6747L134.629 53.3253ZM113.384 40.5572L122.792 13.1972L120.901 12.5468L111.493 39.9068L113.384 40.5572ZM120.901 13.1972L130.309 40.5572L132.2 39.9068L122.792 12.5468L120.901 13.1972ZM131.254 39.232H112.438V41.232H131.254V39.232ZM200.575 14.504V15.504H201.575V14.504H200.575ZM200.575 1.16H201.575V0.159998H200.575V1.16ZM161.215 1.16V0.159998H160.215V1.16H161.215ZM161.215 14.504H160.215V15.504H161.215V14.504ZM172.447 14.504H173.447V13.504H172.447V14.504ZM172.447 51.656V52.656H173.447V51.656H172.447ZM161.215 51.656V50.656H160.215V51.656H161.215ZM161.215 65H160.215V66H161.215V65ZM200.575 65V66H201.575V65H200.575ZM200.575 51.656H201.575V50.656H200.575V51.656ZM189.343 51.656H188.343V52.656H189.343V51.656ZM189.343 14.504V13.504H188.343V14.504H189.343ZM201.575 14.504V1.16H199.575V14.504H201.575ZM200.575 0.159998H161.215V2.16H200.575V0.159998ZM160.215 1.16V14.504H162.215V1.16H160.215ZM161.215 15.504H172.447V13.504H161.215V15.504ZM171.447 14.504V51.656H173.447V14.504H171.447ZM172.447 50.656H161.215V52.656H172.447V50.656ZM160.215 51.656V65H162.215V51.656H160.215ZM161.215 66H200.575V64H161.215V66ZM201.575 65V51.656H199.575V65H201.575ZM200.575 50.656H189.343V52.656H200.575V50.656ZM190.343 51.656V14.504H188.343V51.656H190.343ZM189.343 15.504H200.575V13.504H189.343V15.504ZM259.198 1.16V0.159998H258.198V1.16H259.198ZM259.198 51.944L258.24 52.2313L260.198 51.944H259.198ZM256.318 43.688L255.396 44.0769L255.397 44.0776L256.318 43.688ZM238.366 1.16L239.287 0.771104L239.029 0.159998H238.366V1.16ZM210.622 1.16V0.159998H209.622V1.16H210.622ZM210.622 65H209.622V66H210.622V65ZM226.75 65V66H227.75V65H226.75ZM226.75 14.312L227.712 14.0413L225.75 14.312H226.75ZM229.822 23.336L230.741 22.9439L230.739 22.9384L229.822 23.336ZM247.582 65L246.662 65.3921L246.921 66H247.582V65ZM275.326 65V66H276.326V65H275.326ZM275.326 1.16H276.326V0.159998H275.326V1.16ZM258.198 1.16V51.944H260.198V1.16H258.198ZM260.155 51.6567C259.287 48.7618 258.315 45.8426 257.238 43.2984L255.397 44.0776C256.432 46.5254 257.38 49.3662 258.24 52.2313L260.155 51.6567ZM257.239 43.2991L239.287 0.771104L237.444 1.54889L255.396 44.0769L257.239 43.2991ZM238.366 0.159998H210.622V2.16H238.366V0.159998ZM209.622 1.16V65H211.622V1.16H209.622ZM210.622 66H226.75V64H210.622V66ZM227.75 65V14.312H225.75V65H227.75ZM225.787 14.5827C226.655 17.6688 227.629 20.7917 228.904 23.7336L230.739 22.9384C229.518 20.1203 228.572 17.0992 227.712 14.0413L225.787 14.5827ZM228.902 23.7281L246.662 65.3921L248.501 64.6079L230.741 22.9439L228.902 23.7281ZM247.582 66H275.326V64H247.582V66ZM276.326 65V1.16H274.326V65H276.326ZM275.326 0.159998H259.198V2.16H275.326V0.159998Z" fill="#252529"/>
</svg>
