<svg width="316" height="70" viewBox="0 0 316 70" fill="none" xmlns="http://www.w3.org/2000/svg">
<path d="M1.36 46.264V45.264H0.299448L0.361726 46.3227L1.36 46.264ZM38.608 28.12L38.5062 29.1148L38.5125 29.1154L38.608 28.12ZM26.416 26.872L26.2992 27.8651L26.3067 27.866L26.3142 27.8668L26.416 26.872ZM41.68 22.264L40.6886 22.3949L40.8034 23.264H41.68V22.264ZM58.384 22.264V23.264H59.4632L59.3811 22.1879L58.384 22.264ZM20.656 40.504L20.5401 41.4973L20.5463 41.498L20.656 40.504ZM34.576 42.04L34.7146 41.0497L34.7002 41.0476L34.6857 41.046L34.576 42.04ZM17.776 46.264L18.7719 46.1735L18.6892 45.264H17.776V46.264ZM0.361726 46.3227C0.708927 52.2251 2.77508 58.0874 7.54775 62.4687C12.32 66.8495 19.67 69.632 30.352 69.632V67.632C20.01 67.632 13.2 64.9425 8.90025 60.9953C4.60092 57.0486 2.68307 51.7269 2.35827 46.2053L0.361726 46.3227ZM30.352 69.632C40.8305 69.632 48.2484 67.5015 53.0604 63.6139C57.9124 59.694 59.96 54.1164 59.96 47.608H57.96C57.96 53.6756 56.0716 58.61 51.8036 62.0581C47.4956 65.5385 40.6095 67.632 30.352 67.632V69.632ZM59.96 47.608C59.96 41.6606 58.3191 36.8357 54.7394 33.3332C51.179 29.8497 45.8362 27.8085 38.7035 27.1246L38.5125 29.1154C45.3958 29.7755 50.229 31.7183 53.3407 34.7628C56.433 37.7883 57.96 42.0354 57.96 47.608H59.96ZM38.7098 27.1252L26.5178 25.8772L26.3142 27.8668L38.5062 29.1148L38.7098 27.1252ZM26.5328 25.8788C24.2175 25.6064 22.755 24.9192 21.8752 24.049C21.0131 23.1964 20.6 22.0589 20.6 20.632H18.6C18.6 22.4691 19.1469 24.1636 20.4688 25.471C21.773 26.7608 23.7185 27.5615 26.2992 27.8651L26.5328 25.8788ZM20.6 20.632C20.6 18.8725 21.3773 17.4742 22.8881 16.4738C24.4422 15.4447 26.8165 14.816 29.968 14.816V12.816C26.5915 12.816 23.7818 13.4833 21.7839 14.8062C19.7427 16.1578 18.6 18.1675 18.6 20.632H20.6ZM29.968 14.816C33.4201 14.816 35.946 15.6216 37.6673 16.9284C39.3727 18.2233 40.383 20.0811 40.6886 22.3949L42.6714 22.1331C42.305 19.3589 41.0593 16.9927 38.8767 15.3356C36.71 13.6904 33.7159 12.816 29.968 12.816V14.816ZM41.68 23.264H58.384V21.264H41.68V23.264ZM59.3811 22.1879C58.9327 16.3085 56.654 10.8519 51.871 6.87877C47.1007 2.91619 39.9587 0.527996 29.968 0.527996V2.528C39.6573 2.528 46.2913 4.8438 50.593 8.41722C54.882 11.9801 56.9713 16.8915 57.3869 22.34L59.3811 22.1879ZM29.968 0.527996C20.6191 0.527996 13.5079 2.61984 8.7122 6.3681C3.8846 10.1412 1.512 15.5096 1.512 21.784H3.512C3.512 16.0584 5.6514 11.2987 9.94381 7.9439C14.2681 4.56416 20.8849 2.528 29.968 2.528V0.527996ZM1.512 21.784C1.512 27.4211 3.23921 32.0332 6.55014 35.4083C9.84947 38.7716 14.6234 40.807 20.5401 41.4973L20.7719 39.5107C15.1686 38.857 10.8705 36.9564 7.97786 34.0077C5.09679 31.0708 3.512 26.9949 3.512 21.784H1.512ZM20.5463 41.498L34.4663 43.034L34.6857 41.046L20.7657 39.51L20.5463 41.498ZM34.4374 43.0303C36.7398 43.3527 38.3313 44.002 39.3425 44.9438C40.32 45.8542 40.872 47.1481 40.872 49.048H42.872C42.872 46.7239 42.176 44.8498 40.7056 43.4802C39.2687 42.142 37.2122 41.3993 34.7146 41.0497L34.4374 43.0303ZM40.872 49.048C40.872 50.9945 40.2138 52.4861 38.7363 53.5372C37.195 54.6337 34.6333 55.344 30.64 55.344V57.344C34.8067 57.344 37.861 56.6143 39.8957 55.1668C41.9942 53.6739 42.872 51.5175 42.872 49.048H40.872ZM30.64 55.344C26.3558 55.344 23.5239 54.1955 21.7138 52.545C19.9005 50.8918 18.995 48.628 18.7719 46.1735L16.7801 46.3545C17.037 49.18 18.0995 51.9562 20.3662 54.023C22.6361 56.0925 25.9962 57.344 30.64 57.344V55.344ZM17.776 45.264H1.36V47.264H17.776V45.264ZM119.335 3.16H120.335V2.16H119.335V3.16ZM61.351 3.16V2.16H60.351V3.16H61.351ZM61.351 16.504H60.351V17.504H61.351V16.504ZM81.895 16.504H82.895V15.504H81.895V16.504ZM81.895 67H80.895V68H81.895V67ZM98.887 67V68H99.887V67H98.887ZM98.887 16.504V15.504H97.887V16.504H98.887ZM119.335 16.504V17.504H120.335V16.504H119.335ZM119.335 2.16H61.351V4.16H119.335V2.16ZM60.351 3.16V16.504H62.351V3.16H60.351ZM61.351 17.504H81.895V15.504H61.351V17.504ZM80.895 16.504V67H82.895V16.504H80.895ZM81.895 68H98.887V66H81.895V68ZM99.887 67V16.504H97.887V67H99.887ZM98.887 17.504H119.335V15.504H98.887V17.504ZM120.335 16.504V3.16H118.335V16.504H120.335ZM154.331 69.536C167.233 69.536 176.123 65.3478 181.773 58.8608C187.401 52.3987 189.699 43.7862 189.699 35.128H187.699C187.699 43.4618 185.485 51.5533 180.265 57.5472C175.066 63.5162 166.773 67.536 154.331 67.536V69.536ZM189.699 35.128C189.699 26.6112 187.399 17.955 181.777 11.4123C176.132 4.84253 167.242 0.527996 154.331 0.527996V2.528C166.763 2.528 175.058 6.66147 180.26 12.7157C185.486 18.797 187.699 26.9408 187.699 35.128H189.699ZM154.331 0.527996C141.515 0.527996 132.65 4.81877 127.005 11.3755C121.383 17.9058 119.059 26.5619 119.059 35.128H121.059C121.059 26.8941 123.295 18.7502 128.521 12.6805C133.724 6.63722 141.995 2.528 154.331 2.528V0.527996ZM119.059 35.128C119.059 43.8355 121.381 52.4479 127.009 58.8975C132.658 65.3716 141.524 69.536 154.331 69.536V67.536C141.985 67.536 133.715 63.5404 128.516 57.5825C123.296 51.6001 121.059 43.5085 121.059 35.128H119.059ZM138.723 35.128C138.723 28.8323 139.593 24.1721 141.896 21.0862C144.145 18.0733 147.93 16.352 154.331 16.352V14.352C147.579 14.352 143.061 16.1827 140.293 19.8898C137.581 23.5239 136.723 28.7517 136.723 35.128H138.723ZM154.331 16.352C160.832 16.352 164.639 18.0761 166.885 21.0862C169.188 24.1703 170.035 28.8279 170.035 35.128H172.035C172.035 28.7561 171.202 23.5256 168.488 19.8898C165.719 16.1799 161.174 14.352 154.331 14.352V16.352ZM170.035 35.128C170.035 41.3293 169.188 45.9645 166.885 49.0498C164.637 52.0622 160.828 53.808 154.331 53.808V55.808C161.178 55.808 165.721 53.9538 168.488 50.2462C171.201 46.6115 172.035 41.4067 172.035 35.128H170.035ZM154.331 53.808C147.935 53.808 144.147 52.065 141.896 49.0498C139.592 45.9627 138.723 41.3249 138.723 35.128H136.723C136.723 41.4111 137.582 46.6133 140.293 50.2462C143.059 53.951 147.575 55.808 154.331 55.808V53.808ZM239.502 37.72L239.302 36.7403L239.29 38.6972L239.502 37.72ZM196.59 3.16V2.16H195.59V3.16H196.59ZM196.59 67H195.59V68H196.59V67ZM213.678 67V68H214.678V67H213.678ZM213.678 43.864V42.864H212.678V43.864H213.678ZM235.854 67L234.895 67.2841L235.108 68H235.854V67ZM252.942 67V68H254.143L253.926 66.8188L252.942 67ZM213.678 31.768H212.678V32.768H213.678V31.768ZM213.678 16.12V15.12H212.678V16.12H213.678ZM252.694 51.928C252.694 47.0098 251.23 43.5431 248.786 41.1251C246.371 38.7368 243.109 37.4807 239.715 36.7428L239.29 38.6972C242.52 39.3993 245.353 40.5432 247.379 42.5469C249.375 44.5209 250.694 47.4382 250.694 51.928H252.694ZM239.703 38.6997C248.098 36.9802 254.326 30.4572 254.326 20.824H252.326C252.326 29.4308 246.843 35.1958 239.302 36.7403L239.703 38.6997ZM254.326 20.824C254.326 15.4506 252.486 10.7423 248.684 7.38994C244.896 4.05025 239.281 2.16 231.918 2.16V4.16C238.956 4.16 244.044 5.96574 247.361 8.89006C250.663 11.8017 252.326 15.9254 252.326 20.824H254.326ZM231.918 2.16H196.59V4.16H231.918V2.16ZM195.59 3.16V67H197.59V3.16H195.59ZM196.59 68H213.678V66H196.59V68ZM214.678 67V43.864H212.678V67H214.678ZM213.678 44.864H225.294V42.864H213.678V44.864ZM225.294 44.864C227.866 44.864 229.952 45.5406 231.385 46.8182C232.798 48.0793 233.702 50.04 233.702 52.888H235.702C235.702 49.592 234.638 47.0407 232.716 45.3258C230.812 43.6274 228.195 42.864 225.294 42.864V44.864ZM233.702 52.888V55.48H235.702V52.888H233.702ZM233.702 55.48C233.702 60.7895 234.086 64.5525 234.895 67.2841L236.813 66.7159C236.086 64.2635 235.702 60.7305 235.702 55.48H233.702ZM235.854 68H252.942V66H235.854V68ZM253.926 66.8188C253.254 63.1728 252.694 60.5641 252.694 55.48H250.694C250.694 60.7639 251.286 63.5312 251.959 67.1812L253.926 66.8188ZM252.694 55.48V51.928H250.694V55.48H252.694ZM227.406 30.768H213.678V32.768H227.406V30.768ZM214.678 31.768V16.12H212.678V31.768H214.678ZM213.678 17.12H227.502V15.12H213.678V17.12ZM227.502 17.12C230.211 17.12 231.953 17.7197 233.023 18.7217C234.078 19.7109 234.662 21.2665 234.662 23.608H236.662C236.662 20.9575 235.998 18.7691 234.39 17.2623C232.795 15.7683 230.458 15.12 227.502 15.12V17.12ZM234.662 23.608C234.662 26.2217 234.086 27.9506 233.017 29.0392C231.951 30.1245 230.202 30.768 227.406 30.768V32.768C230.466 32.768 232.846 32.0675 234.444 30.4408C236.038 28.8174 236.662 26.4663 236.662 23.608H234.662ZM279.58 53.656H278.58V54.656H279.58V53.656ZM279.58 40.696V39.696H278.58V40.696H279.58ZM310.876 40.696V41.696H311.876V40.696H310.876ZM310.876 28.312H311.876V27.312H310.876V28.312ZM279.58 28.312H278.58V29.312H279.58V28.312ZM279.58 16.504V15.504H278.58V16.504H279.58ZM313.756 16.504V17.504H314.756V16.504H313.756ZM313.756 3.16H314.756V2.16H313.756V3.16ZM262.684 3.16V2.16H261.684V3.16H262.684ZM262.684 67H261.684V68H262.684V67ZM314.044 67V68H315.044V67H314.044ZM314.044 53.656H315.044V52.656H314.044V53.656ZM280.58 53.656V40.696H278.58V53.656H280.58ZM279.58 41.696H310.876V39.696H279.58V41.696ZM311.876 40.696V28.312H309.876V40.696H311.876ZM310.876 27.312H279.58V29.312H310.876V27.312ZM280.58 28.312V16.504H278.58V28.312H280.58ZM279.58 17.504H313.756V15.504H279.58V17.504ZM314.756 16.504V3.16H312.756V16.504H314.756ZM313.756 2.16H262.684V4.16H313.756V2.16ZM261.684 3.16V67H263.684V3.16H261.684ZM262.684 68H314.044V66H262.684V68ZM315.044 67V53.656H313.044V67H315.044ZM314.044 52.656H279.58V54.656H314.044V52.656Z" fill="#A71320"/>
</svg>
