<svg width="340" height="70" viewBox="0 0 340 70" fill="none" xmlns="http://www.w3.org/2000/svg">
<path d="M84.704 3.16H56.288L43.232 49.528L30.272 3.16H1.184V67H18.08V13.72L33.536 67H52.448L67.808 14.104V67H84.704V3.16ZM94.6438 42.712C94.6438 59.8 104.724 68.536 124.308 68.536C144.084 68.536 154.068 59.704 154.068 42.712V3.16H137.172V40.504C137.172 51.64 133.044 54.712 124.308 54.712C115.668 54.712 111.636 51.64 111.636 40.504V3.16H94.6438V42.712ZM162.204 46.264C162.876 57.688 170.172 68.632 191.196 68.632C211.932 68.632 219.804 60.184 219.804 47.608C219.804 36.088 213.468 29.464 199.452 28.12L187.26 26.872C182.364 26.296 180.444 23.896 180.444 20.632C180.444 16.408 184.284 13.816 190.812 13.816C198.012 13.816 201.852 17.176 202.524 22.264H219.228C218.364 10.936 210.492 1.528 190.812 1.528C172.38 1.528 163.356 9.784 163.356 21.784C163.356 32.632 169.98 39.16 181.5 40.504L195.42 42.04C200.22 42.712 202.716 44.824 202.716 49.048C202.716 53.464 199.644 56.344 191.484 56.344C182.556 56.344 179.1 51.544 178.62 46.264H162.204ZM266.107 16.504V3.16H226.747V16.504H237.979V53.656H226.747V67H266.107V53.656H254.875V16.504H266.107ZM304.853 68.536C328.277 68.536 337.013 60.28 338.549 40.696H320.981C320.309 50.008 316.181 54.808 304.757 54.808C293.237 54.808 288.629 48.088 288.629 35.128C288.629 21.976 293.621 15.352 305.237 15.352C316.373 15.352 320.021 20.344 320.789 28.984H338.165C336.821 10.648 327.797 1.528 304.949 1.528C280.277 1.528 270.965 18.04 270.965 35.128C270.965 52.696 280.181 68.536 304.853 68.536Z" fill="#252529"/>
<path d="M84.704 3.16H85.704V2.16H84.704V3.16ZM56.288 3.16V2.16H55.5307L55.3254 2.88896L56.288 3.16ZM43.232 49.528L42.2689 49.7972L43.2284 53.2302L44.1946 49.799L43.232 49.528ZM30.272 3.16L31.2351 2.89081L31.0308 2.16H30.272V3.16ZM1.184 3.16V2.16H0.184V3.16H1.184ZM1.184 67H0.184V68H1.184V67ZM18.08 67V68H19.08V67H18.08ZM18.08 13.72L19.0404 13.4414L17.08 13.72H18.08ZM33.536 67L32.5756 67.2786L32.7849 68H33.536V67ZM52.448 67V68H53.1989L53.4083 67.2789L52.448 67ZM67.808 14.104H68.808L66.8477 13.8251L67.808 14.104ZM67.808 67H66.808V68H67.808V67ZM84.704 67V68H85.704V67H84.704ZM84.704 2.16H56.288V4.16H84.704V2.16ZM55.3254 2.88896L42.2694 49.257L44.1946 49.799L57.2506 3.43103L55.3254 2.88896ZM44.1951 49.2588L31.2351 2.89081L29.3089 3.42918L42.2689 49.7972L44.1951 49.2588ZM30.272 2.16H1.184V4.16H30.272V2.16ZM0.184 3.16V67H2.184V3.16H0.184ZM1.184 68H18.08V66H1.184V68ZM19.08 67V13.72H17.08V67H19.08ZM17.1196 13.9986L32.5756 67.2786L34.4964 66.7214L19.0404 13.4414L17.1196 13.9986ZM33.536 68H52.448V66H33.536V68ZM53.4083 67.2789L68.7683 14.3829L66.8477 13.8251L51.4877 66.7211L53.4083 67.2789ZM66.808 14.104V67H68.808V14.104H66.808ZM67.808 68H84.704V66H67.808V68ZM85.704 67V3.16H83.704V67H85.704ZM154.068 3.16H155.068V2.16H154.068V3.16ZM137.172 3.16V2.16H136.172V3.16H137.172ZM111.636 3.16H112.636V2.16H111.636V3.16ZM94.6438 3.16V2.16H93.6438V3.16H94.6438ZM93.6438 42.712C93.6438 51.4565 96.2299 58.2252 101.476 62.7866C106.696 67.3258 114.387 69.536 124.308 69.536V67.536C114.644 67.536 107.504 65.3782 102.788 61.2774C98.0976 57.1988 95.6438 51.0555 95.6438 42.712H93.6438ZM124.308 69.536C134.324 69.536 142.041 67.3017 147.261 62.7497C152.506 58.1759 155.068 51.4072 155.068 42.712H153.068C153.068 51.0088 150.637 57.1521 145.947 61.2423C141.231 65.3543 134.067 67.536 124.308 67.536V69.536ZM155.068 42.712V3.16H153.068V42.712H155.068ZM154.068 2.16H137.172V4.16H154.068V2.16ZM136.172 3.16V40.504H138.172V3.16H136.172ZM136.172 40.504C136.172 45.9951 135.144 49.2099 133.303 51.0829C131.469 52.9472 128.602 53.712 124.308 53.712V55.712C128.749 55.712 132.314 54.9408 134.729 52.4851C137.135 50.0381 138.172 46.1489 138.172 40.504H136.172ZM124.308 53.712C120.063 53.712 117.248 52.9479 115.451 51.089C113.641 49.2167 112.636 45.9999 112.636 40.504H110.636C110.636 46.1441 111.647 50.0313 114.013 52.479C116.392 54.9401 119.913 55.712 124.308 55.712V53.712ZM112.636 40.504V3.16H110.636V40.504H112.636ZM111.636 2.16H94.6438V4.16H111.636V2.16ZM93.6438 3.16V42.712H95.6438V3.16H93.6438ZM162.204 46.264V45.264H161.143L161.205 46.3227L162.204 46.264ZM199.452 28.12L199.35 29.1148L199.356 29.1154L199.452 28.12ZM187.26 26.872L187.143 27.8651L187.15 27.866L187.158 27.8668L187.26 26.872ZM202.524 22.264L201.532 22.3949L201.647 23.264H202.524V22.264ZM219.228 22.264V23.264H220.307L220.225 22.1879L219.228 22.264ZM181.5 40.504L181.384 41.4973L181.39 41.498L181.5 40.504ZM195.42 42.04L195.558 41.0497L195.544 41.0476L195.529 41.046L195.42 42.04ZM178.62 46.264L179.616 46.1735L179.533 45.264H178.62V46.264ZM161.205 46.3227C161.553 52.2251 163.619 58.0874 168.391 62.4687C173.164 66.8495 180.514 69.632 191.196 69.632V67.632C180.854 67.632 174.044 64.9425 169.744 60.9953C165.445 57.0486 163.527 51.7269 163.202 46.2053L161.205 46.3227ZM191.196 69.632C201.674 69.632 209.092 67.5015 213.904 63.6139C218.756 59.694 220.804 54.1164 220.804 47.608H218.804C218.804 53.6756 216.915 58.61 212.647 62.0581C208.339 65.5385 201.453 67.632 191.196 67.632V69.632ZM220.804 47.608C220.804 41.6606 219.163 36.8357 215.583 33.3332C212.023 29.8497 206.68 27.8085 199.547 27.1246L199.356 29.1154C206.24 29.7755 211.073 31.7183 214.184 34.7628C217.277 37.7883 218.804 42.0354 218.804 47.608H220.804ZM199.554 27.1252L187.362 25.8772L187.158 27.8668L199.35 29.1148L199.554 27.1252ZM187.377 25.8788C185.061 25.6064 183.599 24.9192 182.719 24.049C181.857 23.1964 181.444 22.0589 181.444 20.632H179.444C179.444 22.4691 179.991 24.1636 181.313 25.471C182.617 26.7608 184.562 27.5615 187.143 27.8651L187.377 25.8788ZM181.444 20.632C181.444 18.8725 182.221 17.4742 183.732 16.4738C185.286 15.4447 187.66 14.816 190.812 14.816V12.816C187.435 12.816 184.626 13.4833 182.628 14.8062C180.586 16.1578 179.444 18.1675 179.444 20.632H181.444ZM190.812 14.816C194.264 14.816 196.79 15.6216 198.511 16.9284C200.216 18.2233 201.227 20.0811 201.532 22.3949L203.515 22.1331C203.149 19.3589 201.903 16.9927 199.72 15.3356C197.554 13.6904 194.56 12.816 190.812 12.816V14.816ZM202.524 23.264H219.228V21.264H202.524V23.264ZM220.225 22.1879C219.776 16.3085 217.498 10.8519 212.715 6.87877C207.944 2.91619 200.802 0.527996 190.812 0.527996V2.528C200.501 2.528 207.135 4.8438 211.437 8.41722C215.726 11.9801 217.815 16.8915 218.231 22.34L220.225 22.1879ZM190.812 0.527996C181.463 0.527996 174.352 2.61984 169.556 6.3681C164.728 10.1412 162.356 15.5096 162.356 21.784H164.356C164.356 16.0584 166.495 11.2987 170.788 7.9439C175.112 4.56416 181.729 2.528 190.812 2.528V0.527996ZM162.356 21.784C162.356 27.4211 164.083 32.0332 167.394 35.4083C170.693 38.7716 175.467 40.807 181.384 41.4973L181.616 39.5107C176.012 38.857 171.714 36.9564 168.822 34.0077C165.941 31.0708 164.356 26.9949 164.356 21.784H162.356ZM181.39 41.498L195.31 43.034L195.529 41.046L181.609 39.51L181.39 41.498ZM195.281 43.0303C197.584 43.3527 199.175 44.002 200.186 44.9438C201.164 45.8542 201.716 47.1481 201.716 49.048H203.716C203.716 46.7239 203.02 44.8498 201.549 43.4802C200.112 42.142 198.056 41.3993 195.558 41.0497L195.281 43.0303ZM201.716 49.048C201.716 50.9945 201.058 52.4861 199.58 53.5372C198.039 54.6337 195.477 55.344 191.484 55.344V57.344C195.65 57.344 198.705 56.6143 200.739 55.1668C202.838 53.6739 203.716 51.5175 203.716 49.048H201.716ZM191.484 55.344C187.2 55.344 184.368 54.1955 182.558 52.545C180.744 50.8918 179.839 48.628 179.616 46.1735L177.624 46.3545C177.881 49.18 178.943 51.9562 181.21 54.023C183.48 56.0925 186.84 57.344 191.484 57.344V55.344ZM178.62 45.264H162.204V47.264H178.62V45.264ZM266.107 16.504V17.504H267.107V16.504H266.107ZM266.107 3.16H267.107V2.16H266.107V3.16ZM226.747 3.16V2.16H225.747V3.16H226.747ZM226.747 16.504H225.747V17.504H226.747V16.504ZM237.979 16.504H238.979V15.504H237.979V16.504ZM237.979 53.656V54.656H238.979V53.656H237.979ZM226.747 53.656V52.656H225.747V53.656H226.747ZM226.747 67H225.747V68H226.747V67ZM266.107 67V68H267.107V67H266.107ZM266.107 53.656H267.107V52.656H266.107V53.656ZM254.875 53.656H253.875V54.656H254.875V53.656ZM254.875 16.504V15.504H253.875V16.504H254.875ZM267.107 16.504V3.16H265.107V16.504H267.107ZM266.107 2.16H226.747V4.16H266.107V2.16ZM225.747 3.16V16.504H227.747V3.16H225.747ZM226.747 17.504H237.979V15.504H226.747V17.504ZM236.979 16.504V53.656H238.979V16.504H236.979ZM237.979 52.656H226.747V54.656H237.979V52.656ZM225.747 53.656V67H227.747V53.656H225.747ZM226.747 68H266.107V66H226.747V68ZM267.107 67V53.656H265.107V67H267.107ZM266.107 52.656H254.875V54.656H266.107V52.656ZM255.875 53.656V16.504H253.875V53.656H255.875ZM254.875 17.504H266.107V15.504H254.875V17.504ZM338.549 40.696L339.546 40.7742L339.631 39.696H338.549V40.696ZM320.981 40.696V39.696H320.051L319.984 40.624L320.981 40.696ZM320.789 28.984L319.793 29.0725L319.874 29.984H320.789V28.984ZM338.165 28.984V29.984H339.241L339.162 28.9109L338.165 28.984ZM304.853 69.536C316.647 69.536 324.981 67.465 330.557 62.7217C336.155 57.9594 338.769 50.6808 339.546 40.7742L337.552 40.6178C336.793 50.2952 334.271 56.9366 329.261 61.1983C324.229 65.479 316.483 67.536 304.853 67.536V69.536ZM338.549 39.696H320.981V41.696H338.549V39.696ZM319.984 40.624C319.656 45.1677 318.497 48.3959 316.22 50.5115C313.941 52.6293 310.352 53.808 304.757 53.808V55.808C310.586 55.808 314.773 54.5867 317.582 51.9765C320.393 49.3641 321.634 45.5363 321.978 40.768L319.984 40.624ZM304.757 53.808C299.198 53.808 295.505 52.1962 293.159 49.2103C290.773 46.1719 289.629 41.5244 289.629 35.128H287.629C287.629 41.6916 288.789 46.8841 291.587 50.4457C294.425 54.0598 298.796 55.808 304.757 55.808V53.808ZM289.629 35.128C289.629 28.647 290.865 23.98 293.351 20.9412C295.802 17.9452 299.622 16.352 305.237 16.352V14.352C299.236 14.352 294.752 16.0708 291.803 19.6748C288.889 23.236 287.629 28.457 287.629 35.128H289.629ZM305.237 16.352C310.673 16.352 314.066 17.5715 316.205 19.6458C318.352 21.7289 319.418 24.8494 319.793 29.0725L321.785 28.8955C321.392 24.4786 320.25 20.7831 317.597 18.2102C314.936 15.6284 310.937 14.352 305.237 14.352V16.352ZM320.789 29.984H338.165V27.984H320.789V29.984ZM339.162 28.9109C338.48 19.605 335.834 12.4375 330.276 7.62402C324.734 2.82527 316.481 0.527996 304.949 0.527996V2.528C316.265 2.528 323.948 4.79072 328.966 9.13597C333.968 13.4665 336.506 20.027 337.168 29.0571L339.162 28.9109ZM304.949 0.527996C292.373 0.527996 283.581 4.74685 277.948 11.2662C272.338 17.7601 269.965 26.4165 269.965 35.128H271.965C271.965 26.7515 274.248 18.6079 279.462 12.5738C284.653 6.56514 292.853 2.528 304.949 2.528V0.527996ZM269.965 35.128C269.965 44.0727 272.31 52.6871 277.905 59.0786C283.519 65.4939 292.29 69.536 304.853 69.536V67.536C292.744 67.536 284.571 63.6581 279.409 57.7614C274.228 51.8409 271.965 43.7513 271.965 35.128H269.965Z" fill="#252529"/>
</svg>
