<svg width="319" height="70" viewBox="0 0 319 70" fill="none" xmlns="http://www.w3.org/2000/svg">
<path d="M51.416 3.16L38.264 43.384C37.208 46.744 36.248 50.104 35.384 53.464C34.52 50.104 33.56 46.744 32.504 43.384L19.448 3.16H1.976L22.712 67H47.672L68.408 3.16H51.416ZM112.919 16.504V3.16H73.559V16.504H84.791V53.656H73.559V67H112.919V53.656H101.687V16.504H112.919ZM155.221 3.16H122.965V67H155.221C175.957 67 185.461 51.544 185.461 34.936C185.461 18.328 175.957 3.16 155.221 3.16ZM151.381 53.656H139.861V16.504H151.381C162.901 16.504 167.797 22.456 167.797 34.936C167.797 47.224 162.997 53.656 151.381 53.656ZM209.799 53.656V40.696H241.095V28.312H209.799V16.504H243.975V3.16H192.903V67H244.263V53.656H209.799ZM283.487 68.536C308.831 68.536 317.855 52.12 317.855 35.128C317.855 18.424 308.831 1.528 283.487 1.528C258.335 1.528 249.215 18.328 249.215 35.128C249.215 52.216 258.335 68.536 283.487 68.536ZM266.879 35.128C266.879 22.456 270.335 15.352 283.487 15.352C296.831 15.352 300.191 22.456 300.191 35.128C300.191 47.608 296.831 54.808 283.487 54.808C270.335 54.808 266.879 47.608 266.879 35.128Z" fill="#252529"/>
<path d="M51.416 3.16V2.16H50.6909L50.4655 2.84922L51.416 3.16ZM38.264 43.384L37.3135 43.0732L37.31 43.0842L38.264 43.384ZM35.384 53.464L34.4155 53.713H36.3525L35.384 53.464ZM32.504 43.384L33.458 43.0842L33.4552 43.0753L32.504 43.384ZM19.448 3.16L20.3992 2.85127L20.1748 2.16H19.448V3.16ZM1.976 3.16V2.16H0.599759L1.02491 3.46892L1.976 3.16ZM22.712 67L21.7609 67.3089L21.9854 68H22.712V67ZM47.672 67V68H48.3986L48.6231 67.3089L47.672 67ZM68.408 3.16L69.3591 3.46892L69.7842 2.16H68.408V3.16ZM50.4655 2.84922L37.3135 43.0732L39.2145 43.6948L52.3665 3.47078L50.4655 2.84922ZM37.31 43.0842C36.2488 46.4607 35.284 49.8376 34.4155 53.215L36.3525 53.713C37.212 50.3703 38.1672 47.0273 39.218 43.6838L37.31 43.0842ZM36.3525 53.215C35.484 49.8376 34.5192 46.4607 33.458 43.0842L31.55 43.6838C32.6008 47.0273 33.556 50.3703 34.4155 53.713L36.3525 53.215ZM33.4552 43.0753L20.3992 2.85127L18.4969 3.46872L31.5528 43.6927L33.4552 43.0753ZM19.448 2.16H1.976V4.16H19.448V2.16ZM1.02491 3.46892L21.7609 67.3089L23.6631 66.6911L2.92709 2.85107L1.02491 3.46892ZM22.712 68H47.672V66H22.712V68ZM48.6231 67.3089L69.3591 3.46892L67.4569 2.85107L46.7209 66.6911L48.6231 67.3089ZM68.408 2.16H51.416V4.16H68.408V2.16ZM112.919 16.504V17.504H113.919V16.504H112.919ZM112.919 3.16H113.919V2.16H112.919V3.16ZM73.559 3.16V2.16H72.559V3.16H73.559ZM73.559 16.504H72.559V17.504H73.559V16.504ZM84.791 16.504H85.791V15.504H84.791V16.504ZM84.791 53.656V54.656H85.791V53.656H84.791ZM73.559 53.656V52.656H72.559V53.656H73.559ZM73.559 67H72.559V68H73.559V67ZM112.919 67V68H113.919V67H112.919ZM112.919 53.656H113.919V52.656H112.919V53.656ZM101.687 53.656H100.687V54.656H101.687V53.656ZM101.687 16.504V15.504H100.687V16.504H101.687ZM113.919 16.504V3.16H111.919V16.504H113.919ZM112.919 2.16H73.559V4.16H112.919V2.16ZM72.559 3.16V16.504H74.559V3.16H72.559ZM73.559 17.504H84.791V15.504H73.559V17.504ZM83.791 16.504V53.656H85.791V16.504H83.791ZM84.791 52.656H73.559V54.656H84.791V52.656ZM72.559 53.656V67H74.559V53.656H72.559ZM73.559 68H112.919V66H73.559V68ZM113.919 67V53.656H111.919V67H113.919ZM112.919 52.656H101.687V54.656H112.919V52.656ZM102.687 53.656V16.504H100.687V53.656H102.687ZM101.687 17.504H112.919V15.504H101.687V17.504ZM122.965 3.16V2.16H121.965V3.16H122.965ZM122.965 67H121.965V68H122.965V67ZM139.861 53.656H138.861V54.656H139.861V53.656ZM139.861 16.504V15.504H138.861V16.504H139.861ZM155.221 2.16H122.965V4.16H155.221V2.16ZM121.965 3.16V67H123.965V3.16H121.965ZM122.965 68H155.221V66H122.965V68ZM155.221 68C165.863 68 173.712 64.0217 178.884 57.8376C184.035 51.6788 186.461 43.4184 186.461 34.936H184.461C184.461 43.0615 182.135 50.8332 177.35 56.5544C172.586 62.2503 165.316 66 155.221 66V68ZM186.461 34.936C186.461 26.4529 184.035 18.262 178.88 12.1738C173.706 6.06139 165.856 2.16 155.221 2.16V4.16C165.322 4.16 172.593 7.8426 177.354 13.4661C182.136 19.114 184.461 26.811 184.461 34.936H186.461ZM151.381 52.656H139.861V54.656H151.381V52.656ZM140.861 53.656V16.504H138.861V53.656H140.861ZM139.861 17.504H151.381V15.504H139.861V17.504ZM151.381 17.504C156.978 17.504 160.751 18.9466 163.156 21.6981C165.587 24.4794 166.797 28.7954 166.797 34.936H168.797C168.797 28.5966 167.559 23.6966 164.662 20.3819C161.739 17.0374 157.305 15.504 151.381 15.504V17.504ZM166.797 34.936C166.797 40.9799 165.611 45.3777 163.181 48.2592C160.781 51.1048 157.006 52.656 151.381 52.656V54.656C157.372 54.656 161.806 52.9912 164.71 49.5488C167.583 46.1423 168.797 41.1801 168.797 34.936H166.797ZM209.799 53.656H208.799V54.656H209.799V53.656ZM209.799 40.696V39.696H208.799V40.696H209.799ZM241.095 40.696V41.696H242.095V40.696H241.095ZM241.095 28.312H242.095V27.312H241.095V28.312ZM209.799 28.312H208.799V29.312H209.799V28.312ZM209.799 16.504V15.504H208.799V16.504H209.799ZM243.975 16.504V17.504H244.975V16.504H243.975ZM243.975 3.16H244.975V2.16H243.975V3.16ZM192.903 3.16V2.16H191.903V3.16H192.903ZM192.903 67H191.903V68H192.903V67ZM244.263 67V68H245.263V67H244.263ZM244.263 53.656H245.263V52.656H244.263V53.656ZM210.799 53.656V40.696H208.799V53.656H210.799ZM209.799 41.696H241.095V39.696H209.799V41.696ZM242.095 40.696V28.312H240.095V40.696H242.095ZM241.095 27.312H209.799V29.312H241.095V27.312ZM210.799 28.312V16.504H208.799V28.312H210.799ZM209.799 17.504H243.975V15.504H209.799V17.504ZM244.975 16.504V3.16H242.975V16.504H244.975ZM243.975 2.16H192.903V4.16H243.975V2.16ZM191.903 3.16V67H193.903V3.16H191.903ZM192.903 68H244.263V66H192.903V68ZM245.263 67V53.656H243.263V67H245.263ZM244.263 52.656H209.799V54.656H244.263V52.656ZM283.487 69.536C296.389 69.536 305.28 65.3478 310.929 58.8608C316.557 52.3987 318.855 43.7862 318.855 35.128H316.855C316.855 43.4618 314.641 51.5533 309.421 57.5472C304.222 63.5162 295.929 67.536 283.487 67.536V69.536ZM318.855 35.128C318.855 26.6112 316.556 17.955 310.933 11.4123C305.288 4.84253 296.398 0.527996 283.487 0.527996V2.528C295.92 2.528 304.214 6.66147 309.417 12.7157C314.642 18.797 316.855 26.9408 316.855 35.128H318.855ZM283.487 0.527996C270.671 0.527996 261.806 4.81877 256.161 11.3755C250.539 17.9058 248.215 26.5619 248.215 35.128H250.215C250.215 26.8941 252.451 18.7502 257.677 12.6805C262.88 6.63722 271.151 2.528 283.487 2.528V0.527996ZM248.215 35.128C248.215 43.8355 250.538 52.4479 256.166 58.8975C261.815 65.3716 270.681 69.536 283.487 69.536V67.536C271.141 67.536 262.871 63.5404 257.672 57.5825C252.452 51.6001 250.215 43.5085 250.215 35.128H248.215ZM267.879 35.128C267.879 28.8323 268.749 24.1721 271.052 21.0862C273.301 18.0733 277.087 16.352 283.487 16.352V14.352C276.735 14.352 272.217 16.1827 269.45 19.8898C266.737 23.5239 265.879 28.7517 265.879 35.128H267.879ZM283.487 16.352C289.988 16.352 293.795 18.0761 296.042 21.0862C298.344 24.1703 299.191 28.8279 299.191 35.128H301.191C301.191 28.7561 300.358 23.5256 297.644 19.8898C294.875 16.1799 290.33 14.352 283.487 14.352V16.352ZM299.191 35.128C299.191 41.3293 298.345 45.9645 296.042 49.0498C293.793 52.0622 289.984 53.808 283.487 53.808V55.808C290.334 55.808 294.877 53.9538 297.644 50.2462C300.357 46.6115 301.191 41.4067 301.191 35.128H299.191ZM283.487 53.808C277.091 53.808 273.303 52.065 271.052 49.0498C268.748 45.9627 267.879 41.3249 267.879 35.128H265.879C265.879 41.4111 266.738 46.6133 269.45 50.2462C272.215 53.951 276.731 55.808 283.487 55.808V53.808Z" fill="#252529"/>
</svg>
