<svg width="921" height="415" viewBox="0 0 921 415" fill="none" xmlns="http://www.w3.org/2000/svg">
<path d="M97.19 189.32C168.47 189.32 193.85 143.15 193.85 95.36C193.85 48.38 168.47 0.859989 97.19 0.859989C26.45 0.859989 0.800001 48.11 0.800001 95.36C0.800001 143.42 26.45 189.32 97.19 189.32ZM50.48 95.36C50.48 59.72 60.2 39.74 97.19 39.74C134.72 39.74 144.17 59.72 144.17 95.36C144.17 130.46 134.72 150.71 97.19 150.71C60.2 150.71 50.48 130.46 50.48 95.36Z" fill="#A71320"/>
<path d="M355.829 5.44999V148.28C353.399 140.18 350.699 132.08 347.729 125.06L297.239 5.44999H219.209V185H264.569V42.44C266.999 51.08 269.699 59.72 273.209 67.82L323.159 185H401.189V5.44999H355.829ZM260.677 377.47V235.45H212.617V415H341.407V377.47H260.677ZM465.173 272.98V235.45H354.473V272.98H386.063V377.47H354.473V415H465.173V377.47H433.583V272.98H465.173ZM630.048 235.45V378.28C627.618 370.18 624.918 362.08 621.948 355.06L571.458 235.45H493.428V415H538.788V272.44C541.218 281.08 543.918 289.72 547.428 297.82L597.378 415H675.408V235.45H630.048ZM752.149 377.47V341.02H840.169V306.19H752.149V272.98H848.269V235.45H704.629V415H849.079V377.47H752.149ZM881.152 354.25H911.932L920.032 235.45H873.052L881.152 354.25ZM874.672 415H918.412V374.5H874.672V415Z" fill="#FBF7EC"/>
</svg>
