<svg width="2903" height="137" viewBox="0 0 2903 137" fill="none" xmlns="http://www.w3.org/2000/svg">
<path d="M107.32 133H141.835L97.57 3.325H44.725L0.46 133H34.78L43.165 108.625H98.935L107.32 133ZM51.94 82.69L71.05 27.115L90.16 82.69H51.94ZM251.212 3.325V106.48C249.457 100.63 247.507 94.78 245.362 89.71L208.897 3.325H152.542V133H185.302V30.04C187.057 36.28 189.007 42.52 191.542 48.37L227.617 133H283.972V3.325H251.212ZM370.596 3.325H305.076V133H370.596C412.716 133 432.021 101.605 432.021 67.87C432.021 34.135 412.716 3.325 370.596 3.325ZM362.796 105.895H339.396V30.43H362.796C386.196 30.43 396.141 42.52 396.141 67.87C396.141 92.83 386.391 105.895 362.796 105.895ZM601.295 133H635.81L591.545 3.325H538.7L494.435 133H528.755L537.14 108.625H592.91L601.295 133ZM545.915 82.69L565.025 27.115L584.135 82.69H545.915ZM681.226 105.895V3.325H646.516V133H739.531V105.895H681.226ZM789.39 105.895V3.325H754.68V133H847.695V105.895H789.39ZM992.877 30.43V3.325H912.927V30.43H935.742V105.895H912.927V133H992.877V105.895H970.062V30.43H992.877ZM1227.93 3.325L1209.21 112.72L1186.98 3.325H1135.89L1113.86 112.135L1095.14 3.325H1061.4L1083.83 133H1141.94L1161.44 30.82L1181.13 133H1239.44L1261.67 3.325H1227.93ZM1361.49 133H1396L1351.74 3.325H1298.89L1254.63 133H1288.95L1297.33 108.625H1353.1L1361.49 133ZM1306.11 82.69L1325.22 27.115L1344.33 82.69H1306.11ZM1505.38 3.325V106.48C1503.63 100.63 1501.68 94.78 1499.53 89.71L1463.07 3.325H1406.71V133H1439.47V30.04C1441.23 36.28 1443.18 42.52 1445.71 48.37L1481.79 133H1538.14V3.325H1505.38ZM1668.92 3.325H1551.14V30.43H1592.87V133H1627.39V30.43H1668.92V3.325ZM1815.53 30.43V3.325H1735.58V30.43H1758.4V105.895H1735.58V133H1815.53V105.895H1792.72V30.43H1815.53ZM1829.95 90.88C1831.32 114.085 1846.14 136.315 1888.84 136.315C1930.96 136.315 1946.95 119.155 1946.95 93.61C1946.95 70.21 1934.08 56.755 1905.61 54.025L1880.85 51.49C1870.9 50.32 1867 45.445 1867 38.815C1867 30.235 1874.8 24.97 1888.06 24.97C1902.69 24.97 1910.49 31.795 1911.85 42.13H1945.78C1944.03 19.12 1928.04 0.009992 1888.06 0.009992C1850.62 0.009992 1832.29 16.78 1832.29 41.155C1832.29 63.19 1845.75 76.45 1869.15 79.18L1897.42 82.3C1907.17 83.665 1912.24 87.955 1912.24 96.535C1912.24 105.505 1906 111.355 1889.43 111.355C1871.29 111.355 1864.27 101.605 1863.3 90.88H1829.95ZM2010.86 90.88C2012.22 114.085 2027.04 136.315 2069.75 136.315C2111.87 136.315 2127.86 119.155 2127.86 93.61C2127.86 70.21 2114.99 56.755 2086.52 54.025L2061.75 51.49C2051.81 50.32 2047.91 45.445 2047.91 38.815C2047.91 30.235 2055.71 24.97 2068.97 24.97C2083.59 24.97 2091.39 31.795 2092.76 42.13H2126.69C2124.93 19.12 2108.94 0.009992 2068.97 0.009992C2031.53 0.009992 2013.2 16.78 2013.2 41.155C2013.2 63.19 2026.65 76.45 2050.05 79.18L2078.33 82.3C2088.08 83.665 2093.15 87.955 2093.15 96.535C2093.15 105.505 2086.91 111.355 2070.33 111.355C2052.2 111.355 2045.18 101.605 2044.2 90.88H2010.86ZM2210.75 136.12C2262.23 136.12 2280.56 102.775 2280.56 68.26C2280.56 34.33 2262.23 0.009992 2210.75 0.009992C2159.66 0.009992 2141.13 34.135 2141.13 68.26C2141.13 102.97 2159.66 136.12 2210.75 136.12ZM2177.01 68.26C2177.01 42.52 2184.03 28.09 2210.75 28.09C2237.85 28.09 2244.68 42.52 2244.68 68.26C2244.68 93.61 2237.85 108.235 2210.75 108.235C2184.03 108.235 2177.01 93.61 2177.01 68.26ZM2466.24 3.325H2408.52L2382 97.51L2355.67 3.325H2296.59V133H2330.91V24.775L2362.3 133H2400.72L2431.92 25.555V133H2466.24V3.325ZM2577.95 133H2612.47L2568.2 3.325H2515.36L2471.09 133H2505.41L2513.8 108.625H2569.57L2577.95 133ZM2522.57 82.69L2541.68 27.115L2560.79 82.69H2522.57ZM2721.85 3.325V106.48C2720.09 100.63 2718.14 94.78 2716 89.71L2679.53 3.325H2623.18V133H2655.94V30.04C2657.69 36.28 2659.64 42.52 2662.18 48.37L2698.25 133H2754.61V3.325H2721.85ZM2841.23 3.325H2775.71V133H2841.23C2883.35 133 2902.66 101.605 2902.66 67.87C2902.66 34.135 2883.35 3.325 2841.23 3.325ZM2833.43 105.895H2810.03V30.43H2833.43C2856.83 30.43 2866.78 42.52 2866.78 67.87C2866.78 92.83 2857.03 105.895 2833.43 105.895Z" fill="#A71320"/>
</svg>
